<svg width="30" height="30" viewBox="0 0 30 30" fill="none" xmlns="http://www.w3.org/2000/svg">
<path d="M15 26.25C16.3807 26.25 17.5 25.1307 17.5 23.75C17.5 22.3693 16.3807 21.25 15 21.25C13.6193 21.25 12.5 22.3693 12.5 23.75C12.5 25.1307 13.6193 26.25 15 26.25Z" stroke="#FEF9E0" stroke-width="2" stroke-linecap="round" stroke-linejoin="round"/>
<path d="M15 8.75C16.3807 8.75 17.5 7.63071 17.5 6.25C17.5 4.86929 16.3807 3.75 15 3.75C13.6193 3.75 12.5 4.86929 12.5 6.25C12.5 7.63071 13.6193 8.75 15 8.75Z" stroke="#FEF9E0" stroke-width="2" stroke-linecap="round" stroke-linejoin="round"/>
<path d="M20 17.5C21.3807 17.5 22.5 16.3807 22.5 15C22.5 13.6193 21.3807 12.5 20 12.5C18.6193 12.5 17.5 13.6193 17.5 15C17.5 16.3807 18.6193 17.5 20 17.5Z" stroke="#FEF9E0" stroke-width="2" stroke-linecap="round" stroke-linejoin="round"/>
<path d="M25 26.25C26.3807 26.25 27.5 25.1307 27.5 23.75C27.5 22.3693 26.3807 21.25 25 21.25C23.6193 21.25 22.5 22.3693 22.5 23.75C22.5 25.1307 23.6193 26.25 25 26.25Z" stroke="#FEF9E0" stroke-width="2" stroke-linecap="round" stroke-linejoin="round"/>
<path d="M5 26.25C6.38071 26.25 7.5 25.1307 7.5 23.75C7.5 22.3693 6.38071 21.25 5 21.25C3.61929 21.25 2.5 22.3693 2.5 23.75C2.5 25.1307 3.61929 26.25 5 26.25Z" stroke="#FEF9E0" stroke-width="2" stroke-linecap="round" stroke-linejoin="round"/>
<path d="M10 17.5C11.3807 17.5 12.5 16.3807 12.5 15C12.5 13.6193 11.3807 12.5 10 12.5C8.61929 12.5 7.5 13.6193 7.5 15C7.5 16.3807 8.61929 17.5 10 17.5Z" stroke="#FEF9E0" stroke-width="2" stroke-linecap="round" stroke-linejoin="round"/>
</svg>
