<svg width="30" height="30" viewBox="0 0 30 30" fill="none" xmlns="http://www.w3.org/2000/svg">
<path d="M12.0889 5.16995C12.1578 4.44537 12.4943 3.7725 13.0328 3.28279C13.5712 2.79309 14.2729 2.52173 15.0008 2.52173C15.7286 2.52173 16.4303 2.79309 16.9688 3.28279C17.5072 3.7725 17.8438 4.44537 17.9126 5.16995C17.954 5.63801 18.1076 6.08922 18.3603 6.48537C18.613 6.88152 18.9575 7.21096 19.3645 7.44579C19.7715 7.68063 20.2291 7.81395 20.6985 7.83447C21.168 7.85499 21.6354 7.76211 22.0614 7.56369C22.7228 7.26342 23.4722 7.21997 24.1639 7.4418C24.8555 7.66364 25.4399 8.13488 25.8033 8.76383C26.1666 9.39277 26.283 10.1344 26.1297 10.8444C25.9764 11.5544 25.5644 12.182 24.9739 12.6049C24.5894 12.8748 24.2755 13.2332 24.0588 13.65C23.8421 14.0667 23.7289 14.5296 23.7289 14.9993C23.7289 15.4691 23.8421 15.9319 24.0588 16.3487C24.2755 16.7654 24.5894 17.1239 24.9739 17.3937C25.5644 17.8167 25.9764 18.4442 26.1297 19.1542C26.283 19.8642 26.1666 20.6059 25.8033 21.2348C25.4399 21.8638 24.8555 22.335 24.1639 22.5568C23.4722 22.7787 22.7228 22.7352 22.0614 22.4349C21.6354 22.2365 21.168 22.1436 20.6985 22.1642C20.2291 22.1847 19.7715 22.318 19.3645 22.5528C18.9575 22.7877 18.613 23.1171 18.3603 23.5133C18.1076 23.9094 17.954 24.3606 17.9126 24.8287C17.8438 25.5533 17.5072 26.2261 16.9688 26.7158C16.4303 27.2056 15.7286 27.4769 15.0008 27.4769C14.2729 27.4769 13.5712 27.2056 13.0328 26.7158C12.4943 26.2261 12.1578 25.5533 12.0889 24.8287C12.0476 24.3605 11.894 23.9091 11.6412 23.5128C11.3884 23.1165 11.0439 22.787 10.6367 22.5521C10.2295 22.3172 9.77172 22.184 9.30211 22.1636C8.8325 22.1432 8.36489 22.2363 7.93889 22.4349C7.2775 22.7352 6.52804 22.7787 5.83639 22.5568C5.14473 22.335 4.56035 21.8638 4.19699 21.2348C3.83363 20.6059 3.71728 19.8642 3.87059 19.1542C4.02389 18.4442 4.43589 17.8167 5.02639 17.3937C5.41091 17.1239 5.7248 16.7654 5.9415 16.3487C6.1582 15.9319 6.27133 15.4691 6.27133 14.9993C6.27133 14.5296 6.1582 14.0667 5.9415 13.65C5.7248 13.2332 5.41091 12.8748 5.02639 12.6049C4.43672 12.1818 4.02545 11.5544 3.87251 10.8449C3.71958 10.1354 3.8359 9.39437 4.19887 8.76584C4.56184 8.1373 5.14553 7.66617 5.8365 7.444C6.52747 7.22182 7.27637 7.26449 7.93764 7.56369C8.36358 7.76211 8.83107 7.85499 9.30051 7.83447C9.76996 7.81395 10.2276 7.68063 10.6346 7.44579C11.0416 7.21096 11.386 6.88152 11.6387 6.48537C11.8914 6.08922 12.045 5.63801 12.0864 5.16995" stroke="#FEF9E0" stroke-width="2" stroke-linecap="round" stroke-linejoin="round"/>
<path d="M15 18.75C17.0711 18.75 18.75 17.0711 18.75 15C18.75 12.9289 17.0711 11.25 15 11.25C12.9289 11.25 11.25 12.9289 11.25 15C11.25 17.0711 12.9289 18.75 15 18.75Z" stroke="#FEF9E0" stroke-width="2" stroke-linecap="round" stroke-linejoin="round"/>
</svg>
