<svg width="30" height="30" viewBox="0 0 30 30" fill="none" xmlns="http://www.w3.org/2000/svg">
<g clip-path="url(#clip0_58_379)">
<path d="M9.3 29.9999C9.15 29.9499 9 29.9099 8.86 29.8499C7.93 29.4999 7.38 28.6699 7.38 27.6199C7.38 24.5999 7.38 21.5799 7.37 18.5499C7.37 17.7699 7.38 16.9899 7.37 16.2099C7.36 15.1999 7.37 14.1899 7.62 13.1999C7.81 12.4499 7.73 11.6699 7.55 10.8899C7.28 10.9899 7.02 11.0899 6.77 11.1799C5.52 11.6599 4.27 12.1599 3.01 12.6299C1.64 13.1399 0.300003 12.3199 0.0800034 10.8799C-0.0599966 9.95988 0.500003 9.00988 1.41 8.63988C2.24 8.30989 3.07 7.99988 3.89 7.66988C3.98 7.63988 4.06 7.59988 4.16 7.54988C3.83 7.35988 3.51 7.19988 3.21 7.00988C2.75 6.70988 2.71 6.32988 3.11 5.94988C3.56 5.52988 3.83 5.02988 3.91 4.42988C4.17 2.37988 6 1.06988 8.15 1.14988C8.62 1.16988 8.97 1.07988 9.35 0.779884C10.57 -0.190116 12.27 -0.180116 13.54 0.729885C14.78 1.61988 15.31 3.19988 14.85 4.66988C14.83 4.72988 14.81 4.79988 14.78 4.89988C15.44 5.21988 16.09 5.52988 16.76 5.84988C17.27 5.16988 17.77 4.49988 18.26 3.81988C18.7 3.19988 19.27 2.81988 20.04 2.80988C20.86 2.80988 21.49 3.16988 21.89 3.88988C22.29 4.60988 22.29 5.35988 21.81 6.01988C20.99 7.15988 20.15 8.28988 19.23 9.34988C18.33 10.3799 17.13 10.6799 15.8 10.3799C15.61 10.3399 15.51 10.3699 15.38 10.5099C15.22 10.6799 15 10.8099 14.81 10.9599C14.74 11.0199 14.66 11.1199 14.66 11.1999C14.65 12.0499 14.65 12.8999 14.65 13.7399C14.65 13.7899 14.67 13.8299 14.69 13.9199C15.09 13.9199 15.49 13.9199 15.89 13.9199C17.88 13.9299 19.33 15.3499 19.35 17.3399C19.37 18.8299 19.37 20.3199 19.36 21.8099C19.35 23.1399 18.34 24.1599 17.04 24.1599C15.73 24.1599 14.7 23.1399 14.69 21.7999C14.68 20.7999 14.69 19.7899 14.69 18.7899C14.69 18.6899 14.69 18.5799 14.69 18.4599C14.61 18.4499 14.55 18.4399 14.49 18.4399C13.65 18.4399 12.82 18.4399 11.93 18.4399C11.93 18.5699 11.93 18.6799 11.93 18.7899C11.93 21.6899 11.93 24.5799 11.93 27.4799C11.93 28.8399 11.36 29.5999 10.05 29.9699C10.03 29.9699 10.02 29.9899 10.01 30.0099C9.77 29.9999 9.53 29.9999 9.3 29.9999ZM8.72 13.8799C10.31 13.8799 11.88 13.8799 13.45 13.8799C13.45 12.9899 13.45 12.1199 13.45 11.2599C12.97 11.1799 12.76 10.9599 12.79 10.6099C12.82 10.2599 13.06 10.0799 13.52 10.0699C13.63 10.0699 13.74 10.0699 13.84 10.0499C14.48 9.94988 14.86 9.48989 14.73 8.88988C14.68 8.64989 14.51 8.40988 14.33 8.24988C13.87 7.81988 13.56 7.32988 13.5 6.68988C13.5 6.64988 13.47 6.60988 13.45 6.55988C12.22 7.28988 10.93 7.30988 9.81 6.72988C9.76 6.68988 9.7 6.65988 9.65 6.67988C9.35 6.78988 9.06 6.90988 8.76 7.02988C9.24 8.03988 9.11 8.98988 8.7 9.93988C8.64 10.0799 8.62 10.2599 8.65 10.3999C8.83 11.2199 8.93 12.0499 8.84 12.8899C8.8 13.2199 8.76 13.5299 8.72 13.8799ZM8.66 15.0699C8.66 15.1299 8.65 15.1599 8.65 15.1799C8.67 15.2599 8.69 15.3499 8.73 15.4299C9.23 16.5599 10.08 17.2099 11.32 17.2499C12.39 17.2899 13.46 17.2599 14.53 17.2599C15.37 17.2599 15.84 17.7399 15.84 18.5599C15.84 19.6299 15.84 20.6999 15.84 21.7799C15.84 22.2599 16.04 22.6299 16.47 22.8599C17.27 23.2799 18.17 22.6999 18.17 21.7699C18.17 20.3199 18.17 18.8699 18.16 17.4099C18.15 15.9899 17.24 15.0799 15.81 15.0799C14.06 15.0799 12.3 15.0699 10.55 15.0699C9.93 15.0699 9.29 15.0699 8.66 15.0699ZM8.54 17.2399C8.54 17.3799 8.54 17.4299 8.54 17.4899C8.54 20.8599 8.54 24.2299 8.55 27.5999C8.55 27.6899 8.55 27.7799 8.56 27.8599C8.67 28.6299 9.46 29.0499 10.14 28.6999C10.59 28.4699 10.75 28.0799 10.75 27.5899C10.75 24.6099 10.75 21.6299 10.75 18.6499C10.75 18.5599 10.74 18.4799 10.74 18.3799C9.91 18.2299 9.19 17.8599 8.54 17.2399ZM14.67 6.13988C14.59 6.65988 14.73 7.04988 15.11 7.35988C15.62 7.77988 15.9 8.30988 15.91 8.97988C15.91 9.14988 15.97 9.21988 16.13 9.24988C17.05 9.41988 17.85 9.18988 18.44 8.45988C19.24 7.46988 20.02 6.44988 20.77 5.42988C20.9 5.24988 20.96 4.96988 20.94 4.74988C20.91 4.35988 20.65 4.09988 20.26 3.99988C19.87 3.89988 19.54 4.02988 19.3 4.34988C18.78 5.02988 18.28 5.72988 17.77 6.40988C17.31 7.02988 16.79 7.15988 16.09 6.81988C15.64 6.60988 15.18 6.38988 14.67 6.13988ZM7.66 7.45988C6.78 7.79988 5.94 8.12988 5.1 8.45988C4.04 8.86988 2.98 9.27988 1.92 9.69988C1.36 9.91988 1.11 10.4499 1.3 10.9699C1.49 11.5099 2.06 11.7499 2.64 11.5199C4.1 10.9599 5.55 10.3699 7.03 9.83988C7.49 9.67988 7.7 9.40988 7.81 8.97988C7.93 8.45988 7.95 7.95988 7.66 7.45988ZM8.14 2.33988C6.91 2.20988 5.3 2.93988 5.07 4.52988C4.99 5.14988 4.79 5.73988 4.4 6.24988C4.39 6.26988 4.4 6.30988 4.39 6.38988C4.79 6.47988 5.19 6.58988 5.6 6.65988C6.22 6.75988 6.79 6.56988 7.35 6.31988C7.78 6.12988 8.23 5.96988 8.69 5.78988C7.91 4.71988 7.75 3.57988 8.14 2.33988ZM13.32 2.13988C12.44 3.50988 11.33 4.58988 9.91 5.33988C10.65 6.14988 12.12 6.16988 13.03 5.37988C13.98 4.54988 14.13 3.07988 13.32 2.13988ZM9.25 4.35988C10.59 3.67988 11.6 2.68988 12.38 1.42988C11.55 1.04988 10.53 1.22988 9.85 1.86988C9.17 2.49988 8.92 3.48988 9.25 4.35988Z" fill="#FEF9E0"/>
<path d="M30 28.6C29.83 28.88 29.72 29.21 29.49 29.42C29.29 29.6 28.97 29.7 28.69 29.71C27.31 29.74 25.92 29.73 24.54 29.72C24.15 29.72 23.9 29.5 23.89 29.16C23.88 28.81 24.13 28.56 24.53 28.56C25.85 28.55 27.16 28.56 28.48 28.56C28.84 28.56 28.85 28.55 28.76 28.19C28.68 27.85 28.57 27.51 28.51 27.17C28.47 26.95 28.36 26.9 28.15 26.9C26.18 26.91 24.21 26.9 22.24 26.9C20.01 26.9 17.78 26.9 15.55 26.89C15.29 26.89 15.17 26.96 15.12 27.23C15.06 27.57 14.96 27.91 14.86 28.25C14.8 28.48 14.86 28.56 15.11 28.56C16.38 28.55 17.64 28.56 18.91 28.56C19 28.56 19.09 28.56 19.17 28.56C19.51 28.59 19.75 28.84 19.75 29.14C19.75 29.46 19.5 29.72 19.15 29.72C18.06 29.73 16.97 29.72 15.88 29.72C15.58 29.72 15.28 29.72 14.97 29.72C14.09 29.7 13.51 28.98 13.7 28.12C13.8 27.64 13.93 27.17 14.05 26.7C14.22 26.07 14.71 25.73 15.4 25.73C18.15 25.73 20.9 25.73 23.64 25.73C25.15 25.73 26.66 25.73 28.17 25.73C28.99 25.73 29.43 26.08 29.63 26.88C29.75 27.34 29.87 27.8 29.99 28.26C30 28.36 30 28.48 30 28.6Z" fill="#FEF9E0"/>
<path d="M21.8 29.7101C21.48 29.7001 21.23 29.4401 21.23 29.1301C21.23 28.8101 21.52 28.5401 21.83 28.5501C22.14 28.5601 22.39 28.8301 22.39 29.1401C22.4 29.4701 22.13 29.7201 21.8 29.7101Z" fill="#FEF9E0"/>
</g>
<defs>
<clipPath id="clip0_58_379">
<rect width="30" height="30" fill="white"/>
</clipPath>
</defs>
</svg>
