<svg width="30" height="30" viewBox="0 0 30 30" fill="none" xmlns="http://www.w3.org/2000/svg">
<path d="M21.996 15.9599C22.4649 16.4289 23.1009 16.6923 23.7641 16.6923C24.4273 16.6923 25.0633 16.4289 25.5322 15.9599C26.0012 15.491 26.2646 14.855 26.2646 14.1918C26.2646 13.5286 26.0012 12.8926 25.5322 12.4237L23.3222 10.2149C23.7912 10.6837 24.4271 10.947 25.0902 10.9469C25.4185 10.9468 25.7436 10.8821 26.0469 10.7564C26.3502 10.6307 26.6257 10.4465 26.8579 10.2143C27.09 9.98213 27.2741 9.70649 27.3997 9.40315C27.5252 9.0998 27.5898 8.77469 27.5898 8.44638C27.5897 8.11807 27.525 7.79298 27.3993 7.48968C27.2736 7.18638 27.0894 6.91081 26.8572 6.6787L23.3222 3.1437C22.8535 2.67476 22.2176 2.41125 21.5545 2.41113C20.8915 2.41102 20.2555 2.6743 19.7866 3.14307C19.3177 3.61184 19.0542 4.2477 19.054 4.91076C19.0539 5.57381 19.3172 6.20976 19.786 6.6787L17.5772 4.4687C17.345 4.2365 17.0694 4.05232 16.766 3.92666C16.4626 3.80099 16.1375 3.73632 15.8091 3.73632C15.4807 3.73632 15.1556 3.80099 14.8522 3.92666C14.5488 4.05232 14.2732 4.2365 14.041 4.4687C13.8088 4.70089 13.6246 4.97654 13.4989 5.27992C13.3733 5.5833 13.3086 5.90845 13.3086 6.23682C13.3086 6.56519 13.3733 6.89035 13.4989 7.19372C13.6246 7.4971 13.8088 7.77275 14.041 8.00495L21.996 15.9599Z" stroke="#FEF9E0" stroke-width="2" stroke-linecap="round" stroke-linejoin="round"/>
<path d="M3.125 26.875L4.875 25.125" stroke="#FEF9E0" stroke-width="2" stroke-linecap="round" stroke-linejoin="round"/>
<path d="M25.125 4.875L26.875 3.125" stroke="#FEF9E0" stroke-width="2" stroke-linecap="round" stroke-linejoin="round"/>
<path d="M6.67772 26.8562C7.14649 27.3252 7.78235 27.5887 8.4454 27.5888C8.77372 27.5889 9.09883 27.5243 9.40217 27.3987C9.70551 27.2731 9.98115 27.089 10.2133 26.8569C10.4455 26.6248 10.6297 26.3492 10.7554 26.0459C10.8811 25.7426 10.9459 25.4175 10.9459 25.0892C10.946 24.7609 10.8814 24.4358 10.7558 24.1324C10.6302 23.8291 10.4461 23.5534 10.214 23.3212L12.4227 25.5312C12.8917 26.0002 13.5277 26.2636 14.1908 26.2636C14.854 26.2636 15.49 26.0002 15.959 25.5312C16.4279 25.0623 16.6914 24.4263 16.6914 23.7631C16.6914 23.0999 16.4279 22.4639 15.959 21.995L8.00397 14.04C7.77178 13.8078 7.49612 13.6236 7.19275 13.498C6.88937 13.3723 6.56422 13.3076 6.23585 13.3076C5.90747 13.3076 5.58232 13.3723 5.27894 13.498C4.97557 13.6236 4.69991 13.8078 4.46772 14.04C4.23553 14.2722 4.05134 14.5478 3.92568 14.8512C3.80002 15.1546 3.73534 15.4798 3.73534 15.8081C3.73534 16.1365 3.80002 16.4616 3.92568 16.765C4.05134 17.0684 4.23553 17.3441 4.46772 17.5762L6.67772 19.785C6.20878 19.3162 5.57284 19.0529 4.90978 19.0531C4.24672 19.0532 3.61087 19.3167 3.1421 19.7856C2.67333 20.2546 2.41004 20.8905 2.41016 21.5536C2.41027 22.2166 2.67378 22.8525 3.14272 23.3212L6.67772 26.8562Z" stroke="#FEF9E0" stroke-width="2" stroke-linecap="round" stroke-linejoin="round"/>
<path d="M12 18L18 12" stroke="#FEF9E0" stroke-width="2" stroke-linecap="round" stroke-linejoin="round"/>
</svg>
