<svg width="30" height="30" viewBox="0 0 30 30" fill="none" xmlns="http://www.w3.org/2000/svg">
<path d="M18.75 13.025L24.75 6.6875" stroke="#FEF9E0" stroke-width="2" stroke-linecap="round" stroke-linejoin="round"/>
<path d="M23.75 22.5H27.5" stroke="#FEF9E0" stroke-width="2" stroke-linecap="round" stroke-linejoin="round"/>
<path d="M11.875 27.5L26.7675 11.7688C27.021 11.5155 27.217 11.2107 27.3424 10.8751C27.4678 10.5394 27.5195 10.1807 27.4941 9.82332C27.4688 9.46592 27.3669 9.11814 27.1953 8.80356C27.0238 8.48898 26.7867 8.21494 26.5 8.00001L19.4875 2.74001C19.3011 2.60379 19.0806 2.52186 18.8504 2.50331C18.6203 2.48476 18.3895 2.5303 18.1837 2.6349C17.9779 2.7395 17.805 2.89906 17.6844 3.09589C17.5637 3.29272 17.4999 3.51913 17.5 3.75001V6.25001C17.5 6.78067 17.3312 7.29756 17.0179 7.72588C16.7046 8.1542 16.2632 8.47173 15.7575 8.63251L10.8463 10.0663C10.5993 10.1506 10.3849 10.31 10.2331 10.5223C10.0814 10.7346 9.99984 10.9891 10 11.25C9.80625 19.2413 7.3975 22.5 5 22.5C4.33696 22.5 3.70107 22.7634 3.23223 23.2322C2.76339 23.7011 2.5 24.337 2.5 25C2.5 25.6631 2.76339 26.2989 3.23223 26.7678C3.70107 27.2366 4.33696 27.5 5 27.5H22.5" stroke="#FEF9E0" stroke-width="2" stroke-linecap="round" stroke-linejoin="round"/>
</svg>
