<svg width="30" height="30" viewBox="0 0 30 30" fill="none" xmlns="http://www.w3.org/2000/svg">
<path d="M15 16.25V2.5L25 7.5L15 12.5" stroke="#FEF9E0" stroke-width="2" stroke-linecap="round" stroke-linejoin="round"/>
<path d="M25.7009 12.7775C26.366 14.8277 26.4283 17.0258 25.8802 19.1104C25.332 21.1949 24.1967 23.0781 22.6091 24.5359C21.0215 25.9937 19.0485 26.9648 16.9249 27.3336C14.8013 27.7024 12.6165 27.4534 10.6303 26.6162C8.64415 25.779 6.9403 24.3888 5.72146 22.6112C4.50262 20.8335 3.82011 18.7431 3.75512 16.5887C3.69013 14.4343 4.24539 12.3066 5.35486 10.4586C6.46432 8.61074 8.08127 7.12043 10.0134 6.16504" stroke="#FEF9E0" stroke-width="2" stroke-linecap="round" stroke-linejoin="round"/>
<path d="M10.003 12.4963C9.37661 13.3301 8.96883 14.3074 8.81679 15.3391C8.66474 16.3708 8.77327 17.4241 9.13248 18.4031C9.4917 19.3822 10.0902 20.2558 10.8734 20.9443C11.6566 21.6328 12.5997 22.1145 13.6166 22.3453C14.6336 22.5761 15.6922 22.5488 16.6959 22.2658C17.6996 21.9828 18.6166 21.4532 19.3632 20.7252C20.1099 19.9972 20.6625 19.0939 20.9708 18.0976C21.279 17.1014 21.333 16.0438 21.128 15.0213" stroke="#FEF9E0" stroke-width="2" stroke-linecap="round" stroke-linejoin="round"/>
</svg>
