<svg width="30" height="30" viewBox="0 0 30 30" fill="none" xmlns="http://www.w3.org/2000/svg">
<path d="M20.0594 15.77C20.142 15.5167 20.3034 15.2964 20.52 15.1412C20.7366 14.9861 20.9971 14.9042 21.2636 14.9076C21.53 14.9109 21.7884 14.9993 22.001 15.1599C22.2137 15.3204 22.3695 15.5447 22.4456 15.8L23.3669 17.615C23.4565 17.7915 23.5868 17.9441 23.747 18.0604C23.9071 18.1766 24.0926 18.2532 24.2881 18.2838L26.3306 18.6038C26.5937 18.6048 26.8496 18.6888 27.0622 18.8437C27.2747 18.9987 27.4329 19.2167 27.5144 19.4668C27.5958 19.7169 27.5962 19.9863 27.5157 20.2367C27.4351 20.487 27.2776 20.7056 27.0656 20.8613L25.6006 22.3213C25.4604 22.4609 25.3553 22.6319 25.294 22.8201C25.2327 23.0083 25.217 23.2083 25.2481 23.4038L25.5719 25.42C25.661 25.6728 25.6665 25.9474 25.5876 26.2035C25.5087 26.4595 25.3497 26.6835 25.1338 26.8423C24.918 27.0011 24.6569 27.0864 24.389 27.0855C24.121 27.0847 23.8604 26.9977 23.6456 26.8375L21.8144 25.9C21.638 25.8097 21.4426 25.7625 21.2444 25.7625C21.0462 25.7625 20.8508 25.8097 20.6744 25.9L18.8431 26.8375C18.6284 26.9964 18.3684 27.0823 18.1012 27.0826C17.8341 27.0829 17.5739 26.9976 17.3587 26.8392C17.1436 26.6808 16.9848 26.4577 16.9058 26.2025C16.8267 25.9474 16.8315 25.6736 16.9194 25.4213L17.2419 23.405C17.273 23.2096 17.2573 23.0095 17.196 22.8213C17.1348 22.6331 17.0297 22.4622 16.8894 22.3225L15.4444 20.8813C15.2252 20.7294 15.0603 20.5115 14.9738 20.2593C14.8873 20.007 14.8838 19.7338 14.9636 19.4794C15.0435 19.225 15.2026 19.0028 15.4178 18.8453C15.6329 18.6877 15.8928 18.6031 16.1594 18.6038L18.2006 18.2838C18.3962 18.2532 18.5817 18.1766 18.7418 18.0604C18.902 17.9441 19.0322 17.7915 19.1219 17.615L20.0594 15.77Z" stroke="#FEF9E0" stroke-width="2" stroke-linecap="round" stroke-linejoin="round"/>
<path d="M10 18.75H8.75C7.42392 18.75 6.15215 19.2768 5.21447 20.2145C4.27678 21.1521 3.75 22.4239 3.75 23.75V26.25" stroke="#FEF9E0" stroke-width="2" stroke-linecap="round" stroke-linejoin="round"/>
<path d="M12.5 13.75C15.2614 13.75 17.5 11.5114 17.5 8.75C17.5 5.98858 15.2614 3.75 12.5 3.75C9.73858 3.75 7.5 5.98858 7.5 8.75C7.5 11.5114 9.73858 13.75 12.5 13.75Z" stroke="#FEF9E0" stroke-width="2" stroke-linecap="round" stroke-linejoin="round"/>
</svg>
