<svg width="22" height="22" viewBox="0 0 22 22" fill="none" xmlns="http://www.w3.org/2000/svg">
<path d="M0 12.5675C0.0733333 12.2008 0.119167 11.8341 0.22 11.4766C0.6325 9.98245 1.46667 8.77245 2.79583 7.94745C3.67583 7.40662 4.5925 7.33329 5.53667 7.74579C6.17833 8.02995 6.82 8.31412 7.44333 8.62579C8.42417 9.11162 8.95583 9.92745 9.075 11.0091C9.1025 11.22 8.965 11.385 8.7725 11.4033C8.57083 11.4216 8.42417 11.3025 8.39667 11.0825C8.3325 10.5416 8.13083 10.065 7.74583 9.67079C7.18667 9.10245 6.50833 9.00162 5.775 9.24912C4.99583 9.49662 4.41833 10.0191 3.92333 10.6516C3.4375 11.2841 3.09833 11.9808 2.90583 12.76C2.89667 12.815 2.87833 12.87 2.86917 12.925C2.805 13.145 2.63083 13.255 2.43833 13.2091C2.255 13.1541 2.15417 12.98 2.2 12.7691C2.3925 11.9441 2.70417 11.165 3.19917 10.4683C3.78583 9.64329 4.54667 9.03829 5.49083 8.66245C5.53667 8.64412 5.5825 8.62579 5.62833 8.59829C4.88583 8.05745 3.89583 8.06662 3.15333 8.53412C2.0625 9.22162 1.3475 10.2025 0.944167 11.4125C0.669167 12.2191 0.614167 13.0533 0.779167 13.8875C0.9625 14.7675 1.53083 15.3083 2.3375 15.5925C2.255 15.1616 2.16333 14.7308 2.08083 14.3C2.0625 14.1991 2.0625 14.0983 2.07167 13.9975C2.08083 13.7866 2.2275 13.6583 2.41083 13.6583C2.60333 13.6583 2.7225 13.7866 2.75 13.9975C2.805 14.355 2.82333 14.7308 2.93333 15.07C3.3275 16.3166 4.4275 16.8116 5.6375 16.3075C5.72 16.2708 5.82083 16.2433 5.90333 16.2525C6.05917 16.2708 6.16 16.3808 6.17833 16.5366C6.19667 16.72 6.11417 16.8391 5.94917 16.9125C5.20667 17.2333 4.44583 17.3066 3.685 16.9675C2.97917 16.6558 2.2825 16.335 1.58583 15.9958C0.6875 15.5558 0.275 14.7675 0.0825 13.8325C0.055 13.6858 0.0275 13.53 0 13.3833C0 13.1083 0 12.8333 0 12.5675Z" fill="#FEF9E0"/>
<path d="M16.115 1.31995C16.83 1.31995 17.545 1.31995 18.26 1.31995C20.955 1.32911 22.715 4.04245 21.6242 6.49911C21.2667 7.30578 20.8908 8.09411 20.515 8.89161C20.4508 9.02911 20.46 9.12995 20.5425 9.25828C22.2475 11.8066 21.4408 15.2808 18.8008 16.8208C18.6908 16.8849 18.5442 16.9216 18.4158 16.9216C17.6733 16.9308 16.9308 16.9308 16.1883 16.9216C15.9133 16.9216 15.7575 16.8024 15.7575 16.5916C15.7483 16.3716 15.9133 16.2433 16.1975 16.2433C16.8942 16.2433 17.5817 16.2433 18.2783 16.2433C18.3792 16.2433 18.4892 16.2158 18.5808 16.1608C20.1942 15.1524 21.0375 13.1999 20.6617 11.3024C20.295 9.44161 18.81 7.96578 16.9492 7.61745C14.7767 7.21411 12.6958 8.30495 11.7883 10.3308C11.7608 10.4041 11.7242 10.4774 11.6783 10.5416C11.5683 10.6791 11.4217 10.7158 11.2567 10.6333C11.0917 10.5508 11.0183 10.3674 11.11 10.1933C11.275 9.86328 11.4492 9.53328 11.6325 9.21245C11.7058 9.09328 11.7242 9.00161 11.66 8.86411C11.2933 8.09411 10.9358 7.32411 10.5875 6.55411C9.59751 4.34495 10.835 1.89745 13.2 1.39328C13.4475 1.33828 13.7133 1.32911 13.97 1.31995C14.685 1.31995 15.4 1.31995 16.115 1.31995ZM19.965 8.49745C20.35 7.64495 20.7808 6.82911 21.0925 5.96745C21.78 4.06078 20.3592 2.04411 18.3333 2.01661C16.8392 1.99828 15.345 1.99828 13.8508 2.01661C11.77 2.05328 10.3675 4.18911 11.1558 6.11411C11.4767 6.89328 11.8525 7.64495 12.21 8.40578C12.2192 8.42411 12.2375 8.43328 12.2467 8.44245C12.4667 8.24995 12.6867 8.06661 12.9067 7.87411C12.6042 7.22328 12.3108 6.59078 12.0175 5.94911C11.3392 4.45495 12.3475 2.87828 13.9883 2.86911C14.8867 2.86911 15.785 2.86911 16.6925 2.86911C16.7383 2.86911 16.7933 2.86911 16.8392 2.86911C17.0225 2.88745 17.1325 2.98828 17.1508 3.16245C17.1692 3.35495 17.0775 3.48328 16.8942 3.52911C16.8208 3.54745 16.7383 3.54745 16.665 3.54745C15.7942 3.54745 14.9233 3.57495 14.0525 3.53828C12.9342 3.49245 12.1092 4.62911 12.6683 5.71995C12.9342 6.25161 13.1725 6.79245 13.42 7.33328C13.4475 7.38828 13.475 7.44328 13.5117 7.49828C14.3367 7.06745 15.1983 6.83828 16.115 6.84745C17.0317 6.84745 17.8842 7.08578 18.7183 7.52578C19.0392 6.82911 19.3692 6.16911 19.6442 5.48161C20.0017 4.55578 19.3142 3.57495 18.3242 3.54745C18.1683 3.53828 18.0125 3.55661 17.8567 3.53828C17.6458 3.51995 17.4992 3.36411 17.5175 3.17161C17.5267 2.98828 17.6642 2.85995 17.8842 2.85995C18.0675 2.85995 18.26 2.85078 18.4433 2.85995C19.6625 2.91495 20.6342 4.10661 20.405 5.30745C20.3225 5.71078 20.13 6.09578 19.965 6.48078C19.7633 6.95745 19.5342 7.42495 19.3142 7.89245C19.5158 8.10328 19.7267 8.29578 19.965 8.49745Z" fill="#FEF9E0"/>
<path d="M6.41669 16.2892C6.49919 15.8675 6.58169 15.3817 6.69169 14.8958C6.72835 14.7492 6.71919 14.6758 6.57252 14.5933C6.13252 14.3642 5.70169 14.0983 5.25252 13.8875C4.82169 13.6767 4.66585 13.3467 4.71169 12.8975C4.76669 12.4117 4.98669 12.0175 5.39919 11.7425C5.65585 11.5775 5.92169 11.55 6.20585 11.7058C6.69169 11.99 7.19585 12.2375 7.68169 12.5217C7.83752 12.6133 7.91085 12.6042 8.03919 12.4667C8.57085 11.8708 9.20335 11.4125 9.96419 11.165C10.6609 10.9358 11.3392 10.9633 12.0084 11.2933C12.5767 11.5683 13.1542 11.8433 13.7409 12.0908C14.7584 12.5217 15.2809 13.3283 15.4734 14.3733C15.8767 16.6008 14.6942 19.14 12.7325 20.2767C11.825 20.7992 10.8809 20.9092 9.90919 20.4233C9.37752 20.1575 8.82752 19.9008 8.27752 19.6717C7.23252 19.2408 6.71919 18.425 6.51752 17.3617C6.46252 17.0317 6.45335 16.7017 6.41669 16.2892ZM14.8775 15.4917C14.8775 14.6575 14.7675 14.1442 14.5659 13.7317C14.1992 12.9892 13.5025 12.5767 12.7509 12.6592C12.3017 12.705 11.88 12.8425 11.5134 13.1083C9.77169 14.3642 9.00169 16.06 9.25836 18.1867C9.44169 19.745 10.945 20.5517 12.3659 19.69C14.025 18.6817 14.7584 17.1233 14.8775 15.4917ZM8.80919 19.1125C8.31419 17.6825 8.46085 16.3167 9.08419 14.9783C9.70752 13.64 10.6517 12.6317 12.0725 12.0817C11.66 11.8708 11.275 11.6875 10.8259 11.6967C10.2025 11.715 9.66169 11.9442 9.19419 12.3292C7.70002 13.5667 6.98502 15.1525 7.16835 17.105C7.26919 18.1317 7.88335 18.8558 8.80919 19.1125ZM6.98502 14.0433C7.15002 13.75 7.30585 13.4658 7.47085 13.1817C6.97585 12.9158 6.49002 12.6408 6.00419 12.375C5.81169 12.2742 5.72002 12.3017 5.57335 12.5125C5.40835 12.7508 5.35335 13.0992 5.47252 13.2C5.49085 13.2092 5.50919 13.2275 5.52752 13.2367C6.00419 13.5025 6.48085 13.7683 6.98502 14.0433Z" fill="#FEF9E0"/>
<path d="M18.5717 12.2284C18.5625 13.5209 17.5725 14.6025 16.28 14.6942C16.1517 14.7034 15.9867 14.6667 15.895 14.5842C15.8217 14.52 15.8033 14.355 15.8217 14.245C15.8492 14.0892 15.9867 14.0342 16.1517 14.025C16.7292 13.9884 17.1967 13.75 17.545 13.2917C18.1683 12.4575 17.9392 11.2567 17.0683 10.6975C16.1792 10.1292 15.0058 10.4317 14.5017 11.3575C14.4742 11.4034 14.4558 11.4584 14.4192 11.5134C14.3092 11.6967 14.135 11.7517 13.9608 11.6692C13.7958 11.5867 13.7225 11.4034 13.805 11.2109C14.1442 10.4684 14.7125 9.99169 15.5008 9.79919C17.0775 9.40502 18.5808 10.6059 18.5717 12.2284Z" fill="#FEF9E0"/>
</svg>
