<svg width="30" height="30" viewBox="0 0 30 30" fill="none" xmlns="http://www.w3.org/2000/svg">
<path d="M6.40005 23.4901C6.52005 24.6001 6.63005 25.6801 6.75005 26.7601C6.89005 27.9601 6.01005 28.9801 4.80005 29.0001C4.23005 29.0101 3.67005 29.0101 3.10005 29.0001C2.54005 29.0001 2.13005 28.6901 2.00005 28.1801C1.88005 27.7101 2.10005 27.2601 2.57005 26.9901C2.82005 26.8501 3.07005 26.6901 3.34005 26.5701C3.55005 26.4801 3.59005 26.3601 3.54005 26.1401C3.20005 24.5801 2.86005 23.0201 2.53005 21.4601C2.34005 20.6001 2.54005 19.8501 3.20005 19.2501C3.86005 18.6501 4.63005 18.5001 5.48005 18.7901C6.48005 19.1201 7.48005 19.4501 8.47005 19.7801C8.55005 19.8101 8.64005 19.8301 8.74005 19.8601C8.71005 19.4201 8.64005 19.0001 8.61005 18.5701C8.55005 17.6301 8.61005 16.7001 8.77005 15.7801C8.83005 15.4501 8.83005 15.1001 8.80005 14.7701C8.69005 13.6701 9.28005 12.7401 10.3401 12.4201C10.9401 12.2401 11.5301 12.0601 12.1301 11.9001C12.3001 11.8501 12.3801 11.7801 12.4101 11.5901C12.5701 10.6801 12.7201 9.77006 12.9301 8.87006C13.0401 8.40006 13.2001 7.93006 13.4301 7.51006C14.1601 6.15006 14.9501 4.82006 15.6901 3.46006C16.0801 2.75006 16.4001 2.01006 16.7501 1.28006C16.9401 0.900057 17.0801 0.820057 17.4901 0.900057C18.0501 1.00006 18.6001 1.12006 19.1501 1.24006C19.6301 1.34006 19.7601 1.54006 19.6401 2.00006C19.5201 2.48006 19.4101 2.97006 19.2601 3.44006C19.2001 3.62006 19.0801 3.83006 18.9301 3.92006C18.3101 4.28006 17.97 4.80006 17.8 5.49006C17.62 6.22006 17.3801 6.93006 17.1201 7.63006C16.9901 7.99006 16.7801 8.32006 16.5801 8.66006C16.4601 8.86006 16.3 9.03006 16.1501 9.21006C16.4801 9.65006 16.87 10.0101 17.38 10.2201C18.43 10.6601 18.9101 11.7601 18.6101 12.7301C18.5801 12.8201 18.6201 12.9401 18.6601 13.0301C19.0201 13.7401 19.0001 14.4301 18.5601 15.1101C18.2301 15.6201 18.1601 16.1801 18.3201 16.7601C18.4001 17.0301 18.4601 17.3101 18.5501 17.5701C18.6201 17.7801 18.6201 18.0101 18.4301 18.1201C18.2801 18.2101 18.0501 18.2401 17.89 18.1901C16.2301 17.6701 15.3201 16.1001 15.6701 14.3901C15.6801 14.3201 15.7001 14.2601 15.7201 14.1601C15.5901 14.1401 15.4601 14.1101 15.3101 14.0801C15.2901 14.1601 15.2701 14.2201 15.2601 14.2801C15.1501 14.9201 14.8201 15.4301 14.4001 15.9101C13.4001 17.0501 12.9701 18.3701 13.1601 19.8801C13.1801 20.0501 13.2701 20.2401 13.3901 20.3501C14.1101 21.0301 14.6 21.8201 14.7401 22.8101C14.7501 22.9001 14.8201 22.9901 14.8801 23.0501C15.6801 23.8901 16.4701 24.7401 17.2801 25.5701C17.3501 25.6401 17.5001 25.6801 17.6001 25.6601C18.7601 25.3701 19.9101 25.4201 21.0601 25.7601C21.8601 26.0001 22.6601 26.2501 23.4801 26.4301C23.9301 26.5301 24.3901 26.5001 24.7501 26.0801C25.3701 25.3701 26.4001 25.3701 27.0501 26.0601C27.6301 26.6801 28.1801 27.3301 28.7401 27.9601C28.9501 28.1901 29.0401 28.4401 28.9101 28.7301C28.7801 29.0301 28.5301 29.1101 28.2201 29.1101C25.8101 29.0901 23.4101 29.0701 21.0001 29.0601C19.7601 29.0501 18.5201 29.0401 17.2901 29.0401C16.4901 29.0401 15.76 28.8401 15.0701 28.4201C13.2501 27.3201 11.4401 26.2201 9.60005 25.1501C8.57005 24.5801 7.49005 24.0701 6.40005 23.4901ZM23.1201 28.1501C23.1301 27.9401 23.1301 27.7501 23.1601 27.5601C23.1801 27.3901 23.1201 27.3201 22.9601 27.2801C22.2801 27.1001 21.6001 26.9301 20.9401 26.7101C19.8101 26.3501 18.68 26.3201 17.55 26.6701C17.25 26.7601 17.0301 26.6801 16.8201 26.4601C15.9101 25.4901 14.9801 24.5301 14.0701 23.5501C13.9601 23.4301 13.8601 23.2601 13.8501 23.1001C13.7501 22.2601 13.3701 21.5901 12.7401 21.0401C12.6601 20.9701 12.5201 20.9101 12.4101 20.9201C11.4901 20.9501 10.5601 21.0001 9.64005 21.0301C9.47005 21.0401 9.29005 21.0101 9.13005 20.9601C7.83005 20.5401 6.54005 20.1201 5.25005 19.7001C5.10005 19.6501 4.95005 19.6101 4.80005 19.6001C3.90005 19.5601 3.29005 20.3601 3.49005 21.3101C3.70005 22.3001 3.91005 23.2901 4.13005 24.2801C4.27005 24.9101 4.41005 25.5501 4.55005 26.1901C4.97005 26.1701 5.35005 26.1501 5.76005 26.1301C5.75005 25.9901 5.74005 25.8801 5.73005 25.7701C5.62005 24.7301 5.51005 23.7001 5.40005 22.6601C5.38005 22.4401 5.41005 22.2501 5.61005 22.1201C5.82005 21.9801 6.01005 22.0601 6.21005 22.1801C6.51005 22.3801 6.81005 22.5801 7.12005 22.7501C8.11005 23.2901 9.12005 23.7901 10.1001 24.3601C11.9701 25.4501 13.8101 26.5701 15.6701 27.6801C16.1701 27.9801 16.7001 28.1201 17.2801 28.1201C18.3401 28.1201 19.4001 28.1401 20.4701 28.1401C21.3101 28.1601 22.2001 28.1501 23.1201 28.1501ZM18.6401 2.09006C18.3301 2.03006 18.0501 1.98006 17.7701 1.90006C17.5701 1.84006 17.4901 1.90006 17.39 2.08006C16.8201 3.21006 16.2301 4.33006 15.6301 5.44006C15.1801 6.28006 14.68 7.10006 14.2301 7.94006C14.05 8.27006 13.9201 8.63006 13.8301 9.00006C13.6701 9.65006 13.5301 10.3101 13.4401 10.9701C13.3101 11.9501 13.0101 12.8301 12.2901 13.5501C12.0301 13.8101 11.9501 14.1501 11.9701 14.5201C12.0001 14.9601 12.1901 15.2901 12.5901 15.4601C13.0001 15.6401 13.3701 15.5501 13.7001 15.2601C14.1101 14.9001 14.3101 14.4301 14.3501 13.9001C14.4601 12.6001 14.5601 11.3001 14.6501 10.0001C14.6701 9.67006 14.7601 9.38006 14.9901 9.13006C15.2701 8.81006 15.5401 8.47006 15.7901 8.12006C15.9601 7.88006 16.12 7.61006 16.21 7.33006C16.49 6.54006 16.7701 5.75006 16.97 4.94006C17.1501 4.23006 17.4801 3.68006 18.1401 3.33006C18.2301 3.28006 18.3301 3.18006 18.3601 3.08006C18.4901 2.76006 18.5501 2.44006 18.6401 2.09006ZM12.1401 19.9901C12.2001 19.3201 12.2301 18.6901 12.3101 18.0601C12.3301 17.8801 12.2901 17.8001 12.1501 17.7101C11.3801 17.2401 10.6101 16.7601 9.84005 16.2801C9.79005 16.2501 9.73005 16.2301 9.65005 16.1901C9.44005 17.5101 9.47005 18.7901 9.78005 20.0801C10.6001 20.0601 11.3901 20.0201 12.1401 19.9901ZM27.6701 28.1801C27.1901 27.6501 26.7501 27.1401 26.2901 26.6601C26.0501 26.4101 25.6401 26.4401 25.4401 26.7401C25.1701 27.1701 24.7801 27.3101 24.3201 27.3501C24.2501 27.3601 24.1801 27.3801 24.0901 27.4101C24.0901 27.6701 24.0901 27.9201 24.0901 28.1801C25.2701 28.1801 26.4401 28.1801 27.6701 28.1801ZM12.8601 16.5101C11.0301 15.9001 10.6601 14.9401 11.5001 12.9501C11.0601 13.1301 10.64 13.2501 10.2801 13.4801C10.0601 13.6201 9.88005 13.9001 9.79005 14.1601C9.71005 14.3801 9.78005 14.6601 9.77005 14.9101C9.76005 15.0901 9.84005 15.1901 9.99005 15.2801C10.8101 15.7801 11.6301 16.2901 12.4501 16.8001C12.5201 16.8401 12.6001 16.8801 12.6801 16.9301C12.7301 16.7701 12.7901 16.6501 12.8601 16.5101ZM15.4001 13.1601C15.7101 13.2101 16.0201 13.2601 16.3401 13.3001C16.4101 13.3101 16.4701 13.3201 16.5401 13.3201C17.0301 13.3301 17.5601 12.9301 17.71 12.4601C17.85 11.9901 17.6801 11.5101 17.2601 11.2401C17.2201 11.3201 17.18 11.3901 17.1501 11.4701C16.6601 12.5301 16.9201 12.3401 15.7701 12.5701C15.3601 12.6701 15.3601 12.6601 15.4001 13.1601ZM17.38 16.8501C17.2 15.9701 17.3701 15.2101 17.8301 14.5001C17.9801 14.2801 18.01 14.0301 17.9201 13.7601C17.7301 13.8701 17.5701 13.9901 17.4001 14.0601C17.2101 14.1401 17.01 14.1701 16.8201 14.2401C16.76 14.2601 16.6801 14.3101 16.6601 14.3701C16.4001 15.1201 16.5201 16.2101 17.38 16.8501ZM5.82005 27.0701C5.30005 27.0901 4.81005 27.1101 4.31005 27.1401C4.26005 27.1401 4.20005 27.1701 4.15005 27.2001C3.79005 27.3901 3.43005 27.5901 3.08005 27.7901C3.02005 27.8301 2.98005 27.9101 2.93005 27.9801C3.00005 28.0101 3.08005 28.0701 3.15005 28.0701C3.69005 28.0801 4.22005 28.0801 4.76005 28.0701C5.36005 28.0601 5.74005 27.7201 5.82005 27.0701ZM15.4901 11.6601C16.1901 11.5601 16.0201 11.7301 16.4001 10.7901C16.14 10.5601 15.9001 10.3301 15.6201 10.0701C15.5701 10.6301 15.5301 11.1401 15.4901 11.6601Z" fill="#FEF9E0"/>
</svg>
