<svg width="30" height="30" viewBox="0 0 30 30" fill="none" xmlns="http://www.w3.org/2000/svg">
<path d="M18.7913 11.8C18.914 11.871 19.0159 11.9731 19.0868 12.0959C19.1576 12.2188 19.1949 12.3581 19.1949 12.5C19.1949 12.6418 19.1576 12.7811 19.0868 12.904C19.0159 13.0269 18.914 13.1289 18.7913 13.2L13.71 16.14C13.5873 16.211 13.448 16.2484 13.3063 16.2484C13.1645 16.2484 13.0252 16.211 12.9025 16.14C12.7798 16.069 12.678 15.9669 12.6073 15.844C12.5366 15.7211 12.4996 15.5817 12.5 15.44V9.55998C12.4998 9.41839 12.5368 9.27924 12.6074 9.15652C12.678 9.03379 12.7797 8.93182 12.9022 8.86087C13.0247 8.78991 13.1638 8.75248 13.3054 8.75232C13.4469 8.75216 13.5861 8.78929 13.7088 8.85998L18.7913 11.8Z" stroke="#FEF9E0" stroke-width="2" stroke-linecap="round" stroke-linejoin="round"/>
<path d="M15 21.25V26.25" stroke="#FEF9E0" stroke-width="2" stroke-linecap="round" stroke-linejoin="round"/>
<path d="M10 26.25H20" stroke="#FEF9E0" stroke-width="2" stroke-linecap="round" stroke-linejoin="round"/>
<path d="M25 3.75H5C3.61929 3.75 2.5 4.86929 2.5 6.25V18.75C2.5 20.1307 3.61929 21.25 5 21.25H25C26.3807 21.25 27.5 20.1307 27.5 18.75V6.25C27.5 4.86929 26.3807 3.75 25 3.75Z" stroke="#FEF9E0" stroke-width="2" stroke-linecap="round" stroke-linejoin="round"/>
</svg>
