<svg width="30" height="30" viewBox="0 0 30 30" fill="none" xmlns="http://www.w3.org/2000/svg">
<path d="M20.0637 15.77C20.1463 15.5167 20.3077 15.2964 20.5243 15.1412C20.7409 14.9861 21.0015 14.9042 21.2679 14.9076C21.5343 14.9109 21.7927 14.9993 22.0054 15.1599C22.218 15.3204 22.3738 15.5447 22.45 15.8L23.3712 17.615C23.4609 17.7915 23.5911 17.9441 23.7513 18.0604C23.9115 18.1766 24.0969 18.2532 24.2925 18.2838L26.335 18.6038C26.598 18.6048 26.854 18.6888 27.0665 18.8437C27.279 18.9987 27.4373 19.2167 27.5187 19.4668C27.6001 19.7169 27.6006 19.9863 27.52 20.2367C27.4395 20.487 27.282 20.7056 27.07 20.8613L25.605 22.3213C25.4647 22.4609 25.3596 22.6319 25.2983 22.8201C25.2371 23.0083 25.2213 23.2083 25.2525 23.4038L25.5762 25.42C25.6653 25.6728 25.6708 25.9474 25.5919 26.2035C25.5131 26.4595 25.354 26.6835 25.1382 26.8423C24.9224 27.0011 24.6612 27.0864 24.3933 27.0855C24.1253 27.0847 23.8648 26.9977 23.65 26.8375L21.8187 25.9C21.6423 25.8097 21.4469 25.7625 21.2487 25.7625C21.0505 25.7625 20.8551 25.8097 20.6787 25.9L18.8475 26.8375C18.6327 26.9964 18.3727 27.0823 18.1055 27.0826C17.8384 27.0829 17.5782 26.9976 17.3631 26.8392C17.1479 26.6808 16.9892 26.4577 16.9101 26.2025C16.8311 25.9474 16.8358 25.6736 16.9237 25.4213L17.2462 23.405C17.2774 23.2096 17.2617 23.0095 17.2004 22.8213C17.1391 22.6331 17.034 22.4622 16.8937 22.3225L15.4487 20.8813C15.2296 20.7294 15.0647 20.5115 14.9782 20.2593C14.8917 20.007 14.8881 19.7338 14.968 19.4794C15.0478 19.225 15.207 19.0028 15.4221 18.8453C15.6372 18.6877 15.8971 18.6031 16.1637 18.6038L18.205 18.2838C18.4005 18.2532 18.586 18.1766 18.7462 18.0604C18.9063 17.9441 19.0366 17.7915 19.1262 17.615L20.0637 15.77Z" stroke="#FEF9E0" stroke-width="2" stroke-linecap="round" stroke-linejoin="round"/>
<path d="M10 18.75H8.75C7.42392 18.75 6.15215 19.2768 5.21447 20.2145C4.27678 21.1521 3.75 22.4239 3.75 23.75V26.25" stroke="#FEF9E0" stroke-width="2" stroke-linecap="round" stroke-linejoin="round"/>
<path d="M12.5 13.75C15.2614 13.75 17.5 11.5114 17.5 8.75C17.5 5.98858 15.2614 3.75 12.5 3.75C9.73858 3.75 7.5 5.98858 7.5 8.75C7.5 11.5114 9.73858 13.75 12.5 13.75Z" stroke="#FEF9E0" stroke-width="2" stroke-linecap="round" stroke-linejoin="round"/>
</svg>
