<svg width="30" height="30" viewBox="0 0 30 30" fill="none" xmlns="http://www.w3.org/2000/svg">
<g clip-path="url(#clip0_58_462)">
<path d="M30 29.0101C29.77 29.5201 29.36 29.6601 28.82 29.6601C19.6 29.6501 10.38 29.6501 1.15998 29.6501C0.359975 29.6501 0.0499754 29.3401 0.0499754 28.5401C0.0499754 27.7901 0.0699754 27.0401 0.0399754 26.2901C-2.45869e-05 25.1301 0.319975 24.1301 1.23998 23.3501C0.359975 22.4601 -0.0600246 21.4001 0.0799754 20.1601C0.189975 19.1201 0.679975 18.2701 1.47998 17.6201C2.93998 16.4301 5.39997 16.3701 6.96997 18.3601C7.62997 17.7401 8.42997 17.4101 9.31997 17.3601C8.83998 15.7801 8.92998 14.1701 9.13998 12.5901C9.46998 10.0501 11.46 8.05005 13.97 7.54005C14.02 7.53005 14.06 7.52005 14.15 7.50005C13.25 6.23005 12.97 4.87005 13.45 3.40005C13.77 2.43005 14.37 1.67005 15.22 1.11005C16.94 -0.00994915 19.2 0.220051 20.68 1.66005C22.04 2.99005 22.61 5.38005 21.05 7.52005C21.17 7.55005 21.28 7.58005 21.38 7.61005C22.87 8.01005 24.06 8.85005 24.92 10.1201C25.03 10.2801 25.15 10.3501 25.34 10.3901C26.45 10.5901 27.29 11.4001 27.49 12.4701C27.7 13.5901 27.23 14.6501 26.25 15.2401C26.04 15.3601 25.98 15.5001 25.98 15.7301C26 16.2901 25.99 16.8601 25.98 17.4301C25.97 17.9901 25.94 18.5501 25.92 19.1301C26.32 19.1301 26.77 19.1301 27.21 19.1301C28.65 19.1301 29.62 19.9001 29.95 21.3001C29.96 21.3401 29.98 21.3701 29.99 21.4101C29.99 21.6401 29.99 21.8801 29.99 22.1101C29.85 22.7101 29.62 23.2501 29.15 23.6901C29.63 24.2001 29.85 24.8101 29.99 25.4501C30 26.6301 30 27.8201 30 29.0101ZM1.81998 27.8701C10.65 27.8701 19.44 27.8701 28.25 27.8701C28.25 27.2601 28.25 26.6601 28.25 26.0701C28.25 24.9501 27.68 24.3801 26.56 24.3801C18.87 24.3801 11.18 24.3801 3.48998 24.3801C3.38998 24.3801 3.28998 24.3801 3.19998 24.3801C2.47998 24.4201 1.85998 24.9801 1.81998 25.6901C1.78998 26.4201 1.81998 27.1401 1.81998 27.8701ZM18.34 22.6301C19.39 22.6301 20.44 22.6301 21.5 22.6301C23.42 22.6301 25.34 22.6301 27.26 22.6301C27.66 22.6301 27.97 22.5001 28.15 22.1301C28.45 21.5301 28.01 20.8701 27.3 20.8701C25.45 20.8701 23.6 20.8701 21.75 20.8701C21.07 20.8701 20.73 20.5301 20.72 19.8501C20.72 19.0801 20.77 18.3101 20.71 17.5401C20.64 16.7101 20.95 16.2101 21.69 15.8301C22.91 15.2001 24.08 14.4801 25.26 13.7901C25.67 13.5501 25.85 13.1901 25.76 12.8001C25.62 12.1901 24.98 11.9301 24.4 12.2601C22.78 13.1901 21.17 14.1301 19.54 15.0601C19.14 15.2901 18.96 15.6 18.96 16.05C18.97 16.76 18.98 17.4701 18.94 18.1801C18.93 18.4201 18.82 18.7101 18.65 18.8701C18.48 19.0301 18.18 19.1101 17.93 19.1101C15.11 19.1301 12.3 19.1201 9.47997 19.1201C8.87997 19.1201 8.36998 19.3301 8.00998 19.8101C7.57998 20.3801 7.50998 21.0101 7.83998 21.6501C8.16998 22.3001 8.71997 22.6201 9.44998 22.6201C12.42 22.6301 15.38 22.6301 18.34 22.6301ZM23.31 10.8601C22.43 9.79005 21.35 9.21005 20.02 9.19005C18.35 9.15005 16.67 9.16005 14.99 9.19005C12.84 9.23005 10.97 10.9901 10.82 13.1401C10.75 14.0701 10.77 15.01 10.79 15.9401C10.81 16.7901 11.44 17.3701 12.29 17.3701C13.61 17.3801 14.92 17.3701 16.24 17.3701C16.83 17.3701 17.22 17.0101 17.21 16.4801C17.2 15.9601 16.82 15.6201 16.24 15.6201C15.32 15.6201 14.41 15.6201 13.49 15.6201C12.91 15.6201 12.55 15.2701 12.54 14.7001C12.53 14.14 12.53 13.5901 12.54 13.0301C12.55 12.4901 12.93 12.1 13.43 12.1101C13.93 12.1201 14.28 12.5001 14.29 13.0501C14.29 13.3101 14.29 13.5701 14.29 13.8301C15.47 13.9801 16.69 13.5801 17.7 14.2301C18.16 13.92 18.57 13.6101 19.01 13.3501C19.79 12.8801 20.59 12.43 21.39 11.9801C22.02 11.6101 22.65 11.2501 23.31 10.8601ZM14.97 4.77005C14.96 6.21005 16.13 7.40005 17.57 7.42005C19.03 7.43005 20.22 6.26005 20.23 4.80005C20.24 3.36005 19.07 2.17005 17.63 2.15005C16.17 2.14005 14.98 3.32005 14.97 4.77005ZM1.80998 20.5901C1.81998 21.7101 2.73998 22.6301 3.86998 22.6201C4.98998 22.6101 5.90998 21.6901 5.89998 20.5601C5.88998 19.4401 4.96998 18.5201 3.83998 18.5301C2.71998 18.5401 1.79998 19.4701 1.80998 20.5901ZM24.21 16.4201C23.63 16.7501 23.09 17.0601 22.55 17.3801C22.51 17.4001 22.47 17.4701 22.47 17.5201C22.47 17.8301 22.46 18.1501 22.51 18.4501C22.58 18.8601 22.98 19.1301 23.38 19.1201C23.79 19.1001 24.18 18.7901 24.2 18.3901C24.24 17.7501 24.21 17.1101 24.21 16.4201Z" fill="#FEF9E0"/>
</g>
<defs>
<clipPath id="clip0_58_462">
<rect width="30" height="30" fill="white"/>
</clipPath>
</defs>
</svg>
