<svg width="30" height="30" viewBox="0 0 30 30" fill="none" xmlns="http://www.w3.org/2000/svg">
<path d="M13.55 7.85004C14.11 5.48004 15.43 3.70004 17.56 2.56004C19.33 1.62004 21.2 1.41004 23.14 1.88004C26.95 2.81004 29.5 6.58004 28.99 10.54C28.5 14.42 25.12 17.39 21.2 17.36C18.9 17.34 16.95 16.47 15.4 14.76C13.86 13.06 13.24 11.03 13.4 8.74004C12.54 8.74004 11.7 8.74004 10.83 8.74004C10.82 8.84004 10.82 8.95004 10.82 9.05004C10.82 13.78 10.82 18.51 10.82 23.24C10.82 23.44 10.87 23.58 11.03 23.72C11.46 24.1 11.88 24.49 12.33 24.9C12.71 24.54 13.07 24.2 13.44 23.85C13.58 23.72 13.72 23.58 13.87 23.45C14.14 23.21 14.32 23.21 14.58 23.45C15.03 23.86 15.49 24.28 15.94 24.69C16.01 24.75 16.08 24.82 16.17 24.89C16.66 24.44 17.14 24 17.62 23.56C17.99 23.22 18.21 23.22 18.57 23.56C19.04 24 19.5 24.44 19.99 24.9C20.49 24.44 20.98 24 21.46 23.55C21.87 23.18 21.98 23.18 22.39 23.55C22.87 23.98 23.36 24.42 23.86 24.86C24.35 24.42 24.82 24 25.28 23.56C25.35 23.49 25.36 23.35 25.36 23.24C25.36 21.44 25.36 19.63 25.36 17.83C25.36 17.72 25.36 17.61 25.37 17.51C25.4 17.3 25.54 17.18 25.74 17.16C25.95 17.14 26.13 17.22 26.2 17.44C26.23 17.55 26.24 17.67 26.24 17.79C26.24 20.73 26.24 23.68 26.24 26.62C26.24 27.74 25.54 28.44 24.41 28.44C18.25 28.44 12.09 28.44 5.93 28.44C3.07 28.44 0.879995 26.25 0.869995 23.38C0.869995 18.59 0.869995 13.8 0.869995 9.02004C0.869995 6.51004 2.66 4.40004 5.08 4.05004C7.64999 3.68004 9.95 5.15004 10.68 7.63004C10.71 7.72004 10.81 7.85004 10.88 7.85004C11.77 7.85004 12.66 7.85004 13.55 7.85004ZM1.76 20.6C3.83999 17.8 7.9 17.76 9.93 20.54C9.94 20.48 9.93999 20.45 9.93999 20.42C9.93999 16.5 9.97 12.58 9.92 8.66004C9.89999 6.27004 7.47 4.41004 5.11 4.88004C3.12 5.28004 1.75 6.94004 1.75 8.98004C1.75 12.74 1.75 16.51 1.75 20.27C1.76 20.36 1.76 20.44 1.76 20.6ZM27.64 6.92004C27.61 6.92004 27.58 6.92004 27.55 6.92004C26.98 7.58004 26.23 7.97004 25.42 8.25004C24.04 8.73004 22.62 8.90004 21.17 8.90004C19.69 8.90004 18.23 8.74004 16.83 8.24004C16.03 7.96004 15.28 7.57004 14.68 6.86004C14.57 7.28004 14.48 7.65004 14.36 8.01004C14.14 8.65004 14.37 9.15004 14.88 9.48004C15.42 9.83004 16 10.15 16.6 10.38C17.21 10.61 17.88 10.72 18.52 10.87C18.78 10.93 18.94 11.09 18.93 11.32C18.92 11.56 18.72 11.72 18.44 11.72C18.39 11.72 18.34 11.71 18.29 11.71C16.91 11.49 15.61 11.05 14.45 10.25C14.38 10.2 14.32 10.16 14.24 10.11C14.22 10.14 14.21 10.15 14.22 10.16C14.23 10.28 14.25 10.39 14.26 10.51C14.32 11.55 14.81 12.3 15.78 12.7C16.28 12.91 16.79 13.12 17.31 13.27C19.12 13.77 20.96 13.85 22.82 13.68C24.11 13.56 25.35 13.27 26.54 12.74C27.66 12.24 28.06 11.32 28.15 10.2C27.83 10.39 27.53 10.6 27.2 10.76C25.11 11.77 22.87 11.98 20.59 11.94C20.36 11.94 20.23 11.8 20.21 11.57C20.18 11.32 20.3 11.15 20.54 11.09C20.67 11.06 20.81 11.07 20.95 11.07C22.51 11.08 24.04 10.94 25.54 10.47C26.29 10.24 27.01 9.95004 27.59 9.40004C27.82 9.18004 28.04 8.92004 27.99 8.59004C27.91 8.03004 27.76 7.48004 27.64 6.92004ZM25.44 24.74C25.05 25.1 24.72 25.41 24.38 25.72C24.04 26.04 23.88 26.04 23.54 25.72C23.04 25.26 22.54 24.8 22.02 24.33C21.5 24.81 20.99 25.28 20.48 25.74C20.16 26.03 20 26.03 19.68 25.74C19.17 25.27 18.66 24.81 18.14 24.33C17.67 24.76 17.22 25.17 16.77 25.59C16.23 26.09 16.18 26.09 15.65 25.6C15.19 25.18 14.74 24.76 14.27 24.33C13.77 24.79 13.29 25.23 12.81 25.67C12.39 26.05 12.27 26.05 11.86 25.67C11.49 25.32 11.11 24.97 10.71 24.59C10.39 25.82 9.72999 26.77 8.68999 27.54C8.86999 27.54 8.95 27.54 9.04 27.54C14.19 27.54 19.33 27.54 24.48 27.54C24.59 27.54 24.7 27.54 24.8 27.52C25.15 27.46 25.44 27.2 25.45 26.86C25.45 26.19 25.44 25.5 25.44 24.74ZM9.95 23.47C9.95 21.21 8.13 19.37 5.88 19.36C3.63 19.35 1.77 21.19 1.77 23.43C1.76 25.67 3.61 27.54 5.85 27.55C8.08 27.56 9.93999 25.71 9.95 23.47ZM26.44 4.86004C24.84 5.96004 23.07 6.25004 21.23 6.25004C19.38 6.25004 17.6 5.96004 16.01 4.86004C15.85 5.06004 15.69 5.25004 15.55 5.46004C15.26 5.86004 15.27 6.04004 15.59 6.41004C15.67 6.50004 15.75 6.58004 15.84 6.65004C16.34 7.06004 16.93 7.30004 17.54 7.48004C19.49 8.05004 21.47 8.11004 23.47 7.80004C24.48 7.65004 25.46 7.39004 26.32 6.82004C26.6 6.63004 26.84 6.36004 27.06 6.09004C27.13 6.01004 27.13 5.79004 27.07 5.70004C26.89 5.41004 26.66 5.15004 26.44 4.86004ZM25.77 4.24004C23.09 1.83004 19 2.07004 16.69 4.25004C18.82 5.82004 23.93 5.71004 25.77 4.24004ZM26.78 13.66C23.05 15.01 19.34 14.97 15.63 13.62C18.39 17.46 24.07 17.4 26.78 13.66Z" fill="#FEF9E0"/>
<path d="M2.59003 12.2899C2.59003 11.2199 2.59003 10.1499 2.59003 9.06993C2.59003 8.95993 2.59003 8.84993 2.61003 8.74993C2.66003 8.51993 2.82003 8.42993 3.04003 8.42993C3.26003 8.42993 3.41003 8.53993 3.45003 8.75993C3.47003 8.85993 3.47003 8.96993 3.47003 9.07993C3.47003 11.2099 3.47003 13.3499 3.47003 15.4799C3.47003 15.5299 3.47003 15.5799 3.47003 15.6299C3.46003 15.9599 3.30003 16.1399 3.03003 16.1299C2.77003 16.1199 2.59003 15.9299 2.59003 15.6099C2.59003 14.5099 2.59003 13.3999 2.59003 12.2899Z" fill="#FEF9E0"/>
<path d="M2.96997 23.83C2.96997 21.97 4.02997 20.7 5.65997 20.37C6.03997 20.29 6.42997 20.28 6.81997 20.28C7.11997 20.28 7.31997 20.5 7.30997 20.72C7.29997 20.97 7.04997 21.17 6.74997 21.15C6.11997 21.12 5.52997 21.26 4.98997 21.59C4.09997 22.13 3.78997 22.93 3.91997 23.93C4.03997 24.82 4.70997 25.53 5.62997 25.76C6.29997 25.93 7.05997 25.63 7.47997 25.04C7.87997 24.48 7.90997 23.75 7.53997 23.2C7.13997 22.59 6.37997 22.36 5.77997 22.67C5.18997 22.97 5.09997 23.91 5.61997 24.3C5.85997 24.48 6.13997 24.44 6.30997 24.19C6.39997 24.05 6.44997 23.93 6.23997 23.81C6.01997 23.69 5.95997 23.42 6.06997 23.23C6.18997 23.03 6.42997 22.97 6.65997 23.07C7.13997 23.28 7.37997 23.75 7.24997 24.26C7.02997 25.16 5.96997 25.57 5.19997 25.06C4.56997 24.64 4.26997 23.83 4.45997 23.05C4.66997 22.23 5.28997 21.69 6.09997 21.61C7.37997 21.49 8.45997 22.43 8.56997 23.75C8.66997 24.84 8.23997 25.68 7.31997 26.24C6.30997 26.85 5.29997 26.73 4.33997 26.12C3.41997 25.56 2.98997 24.66 2.96997 23.83Z" fill="#FEF9E0"/>
</svg>
