<svg width="22" height="22" viewBox="0 0 22 22" fill="none" xmlns="http://www.w3.org/2000/svg">
<path d="M13.8325 6.41661C13.915 6.48078 13.9883 6.53578 14.0892 6.59994C14.1075 6.50828 14.1167 6.44411 14.135 6.37994C14.2175 6.11411 14.2542 5.82078 14.3917 5.59161C14.8867 4.78494 15.51 4.09744 16.4725 3.84994C17.5175 3.58411 18.6358 4.04244 19.2042 4.95911C19.7908 5.89411 19.7175 7.08578 19.0025 7.91994C18.7733 8.19494 18.5167 8.45161 18.2417 8.68078C17.5908 9.23078 16.8392 9.38661 15.9775 9.19411C16.0142 9.48744 16.0233 9.77161 16.0783 10.0466C16.1608 10.4591 16.1242 10.8441 15.9867 11.2474C15.73 12.0083 15.51 12.7783 15.2717 13.5391C14.9508 14.5933 14.7492 14.8408 13.7683 15.3633C13.9517 15.8491 14.1442 16.3349 14.3092 16.8208C14.3733 17.0133 14.4192 17.2241 14.4192 17.4258C14.4283 18.1408 14.4283 18.8558 14.4283 19.5708C14.4283 19.5891 14.4375 19.5983 14.4283 19.5616C14.6667 19.7174 14.8867 19.8366 15.07 20.0016C15.4642 20.3683 15.5008 20.8541 15.455 21.3583C15.4367 21.5324 15.3083 21.6424 15.125 21.6424C14.3275 21.6516 13.5208 21.6516 12.7233 21.6424C12.5125 21.6424 12.4025 21.5141 12.375 21.3033C12.21 20.2766 12.0358 19.2591 11.8617 18.2324C11.8158 17.9758 11.7792 17.7099 11.7333 17.4533C11.7242 17.3891 11.6875 17.3158 11.6417 17.2699C10.8625 16.4816 10.0742 15.6933 9.27667 14.8958C8.92833 15.2074 8.58 15.5008 8.24083 15.8033C7.81917 16.1699 7.3975 16.5366 6.985 16.9124C6.9025 16.9858 6.83833 17.0866 6.81083 17.1874C6.49917 18.5074 6.19667 19.8366 5.89417 21.1566C5.79333 21.6058 5.7475 21.6424 5.28917 21.6424C4.4825 21.6424 3.66667 21.6424 2.86 21.6424C2.52083 21.6424 2.42 21.5324 2.40167 21.1933C2.37417 20.5424 2.57583 20.0108 3.19 19.7266C3.42833 19.6166 3.50167 19.4883 3.52917 19.2499C3.7125 17.8749 3.91417 16.4999 4.11583 15.1249C4.125 15.0424 4.1525 14.9508 4.19833 14.8866C5.17 13.5941 6.11417 12.2833 7.14083 11.0366C8.085 9.89078 9.24917 8.95578 10.4958 8.14911C10.6058 8.07578 10.6792 7.99328 10.7067 7.85578C11 6.15078 11.6325 4.55578 12.3658 2.99744C12.4025 2.91494 12.4758 2.83244 12.5492 2.76828C13.3742 2.11744 14.2083 1.47578 15.0425 0.824944C15.4275 0.522444 15.8583 0.357444 16.3442 0.33911C16.8483 0.31161 17.2517 0.55911 17.4258 0.989944C17.6092 1.42078 17.4992 1.86994 17.1142 2.20911C16.3717 2.85994 15.6292 3.51078 14.8867 4.16161C14.7675 4.26244 14.6667 4.40911 14.6025 4.54661C14.355 5.17911 14.0983 5.79328 13.8325 6.41661ZM5.53667 19.5799C5.555 19.5249 5.57333 19.4883 5.5825 19.4516C5.775 18.6266 5.9675 17.8108 6.14167 16.9858C6.1875 16.7658 6.27917 16.6008 6.45333 16.4449C7.2875 15.7299 8.1125 14.9966 8.94667 14.2724C9.23083 14.0249 9.35917 14.0249 9.625 14.2908C10.4775 15.1433 11.33 15.9866 12.1733 16.8483C12.2742 16.9491 12.3475 17.1049 12.3842 17.2516C12.4575 17.5724 12.5033 17.9024 12.5583 18.2233C12.6317 18.6816 12.7142 19.1308 12.7875 19.5799C13.1267 19.5799 13.4383 19.5799 13.7592 19.5799C13.7592 18.8099 13.7592 18.0583 13.7592 17.3066C13.7592 17.2516 13.7408 17.1966 13.7225 17.1416C13.53 16.6283 13.3375 16.1241 13.1542 15.6108C13.1175 15.5008 13.0625 15.4549 12.9342 15.4641C12.5125 15.4733 12.0908 15.4733 11.6692 15.4641C11.2475 15.4549 10.9358 15.2349 10.7617 14.8499C10.5875 14.4741 10.6517 14.1074 10.9083 13.7866C10.945 13.7408 10.9725 13.7041 11.0092 13.6491C9.96417 12.8424 8.9375 12.0541 7.8925 11.2566C7.70917 11.4583 7.52583 11.6416 7.37 11.8433C6.53583 12.9524 5.70167 14.0616 4.8675 15.1708C4.8125 15.2441 4.79417 15.3358 4.77583 15.4274C4.7025 15.8858 4.63833 16.3441 4.57417 16.8116C4.44583 17.7283 4.30833 18.6541 4.18 19.5799C4.63833 19.5799 5.07833 19.5799 5.53667 19.5799ZM11.6508 13.2916C12.1917 12.7233 12.7233 12.1641 13.2367 11.6049C13.2825 11.5499 13.3008 11.4674 13.31 11.3941C13.3467 11.1374 13.3742 10.8899 13.4017 10.6241C13.64 10.6516 13.86 10.6791 14.08 10.7066C14.0708 10.8166 14.0617 10.8991 14.0525 11.0091C14.4558 11.0091 14.85 11.0091 15.2442 11.0091C15.2808 11.0091 15.3542 10.9724 15.3542 10.9449C15.3908 10.8074 15.4458 10.6699 15.4367 10.5324C15.3908 10.0374 15.3267 9.53328 15.2442 9.03828C15.235 8.94661 15.1617 8.85494 15.0975 8.78161C14.8867 8.53411 14.5933 8.32328 14.4558 8.03911C14.2633 7.64494 13.97 7.37911 13.6308 7.14078C13.5208 7.06744 13.42 6.98494 13.3192 6.91161C13.0075 6.68244 12.9892 6.60911 13.1358 6.26078C13.1542 6.21494 13.1725 6.15994 13.1908 6.08661C12.7875 6.03161 12.4117 5.97661 12.0267 5.94911C11.9808 5.94911 11.8892 6.04078 11.8708 6.09578C11.6875 6.80161 11.5042 7.50744 11.3392 8.21328C11.3025 8.38744 11.22 8.50661 11.0733 8.60744C10.615 8.91911 10.1567 9.22161 9.72583 9.56078C9.24917 9.93661 8.8 10.3491 8.32333 10.7524C9.46917 11.6049 10.5508 12.4391 11.6508 13.2916ZM15.4825 5.30744C15.0333 5.68328 14.8042 6.15078 14.7858 6.66411C14.7583 7.47078 15.235 8.19494 15.9775 8.46994C16.7383 8.75411 17.5725 8.51578 18.1042 7.87411C18.1317 7.83744 18.15 7.78244 18.1408 7.74578C18.04 7.36994 17.9208 7.00328 17.8108 6.60911C16.7567 6.73744 16.1425 5.99494 15.4825 5.30744ZM12.1458 5.25244C12.6042 5.30744 13.0167 5.36244 13.42 5.40828C13.4658 5.40828 13.5392 5.32578 13.5667 5.27078C13.7317 4.89494 13.8875 4.50994 14.0617 4.13411C14.1258 4.00578 14.2175 3.87744 14.3275 3.77661C15.1067 3.08911 15.8858 2.40161 16.665 1.72328C16.8025 1.60411 16.885 1.45744 16.8025 1.26494C16.72 1.08161 16.5733 1.02661 16.3808 1.03578C16.0417 1.06328 15.7392 1.17328 15.4733 1.38411C14.685 1.99828 13.8875 2.61244 13.0992 3.23578C13.0533 3.27244 12.9892 3.31828 12.9708 3.37328C12.705 3.97828 12.4392 4.59244 12.1458 5.25244ZM13.9792 11.6966C13.9333 12.1458 13.8783 12.5766 13.8325 13.0074C13.7683 13.6766 13.3192 14.0891 12.6592 14.0983C12.3567 14.0983 12.0542 14.0983 11.7608 14.0983C11.5042 14.0983 11.3483 14.2266 11.3483 14.4374C11.3392 14.6483 11.5042 14.7858 11.77 14.7858C12.1917 14.7858 12.6133 14.7858 13.035 14.7858C13.75 14.7858 14.3092 14.3733 14.5292 13.6858C14.7217 13.0808 14.905 12.4758 15.0883 11.8616C15.1067 11.8066 15.1158 11.7608 15.125 11.6966C14.74 11.6966 14.3733 11.6966 13.9792 11.6966ZM15.9867 4.83994C16.225 5.06911 16.445 5.30744 16.6925 5.53661C17.0592 5.88494 17.4992 6.00411 18.0033 5.89411C18.425 5.79328 18.5625 5.91244 18.5717 6.34328C18.5808 6.61828 18.6083 6.88411 18.6267 7.15911C19.1125 6.50828 18.9383 5.51828 18.2967 4.94078C17.6367 4.35411 16.6283 4.30828 15.9867 4.83994ZM3.09833 20.9549C3.81333 20.9549 4.51917 20.9549 5.225 20.9549C5.28 20.7349 5.32583 20.5149 5.38083 20.2766C4.80333 20.2766 4.2625 20.2674 3.72167 20.2766C3.3825 20.2949 3.14417 20.5608 3.09833 20.9549ZM12.8975 20.2858C12.9342 20.5241 12.98 20.7441 13.0167 20.9641C13.6125 20.9641 14.19 20.9641 14.7675 20.9641C14.7675 20.6066 14.52 20.3133 14.1717 20.2949C13.7592 20.2674 13.3375 20.2858 12.8975 20.2858ZM13.1542 12.6958C12.925 12.9433 12.7233 13.1541 12.5125 13.3833C12.9892 13.4474 13.1542 13.2733 13.1542 12.6958Z" fill="#FEF9E0"/>
</svg>
