<svg width="22" height="22" viewBox="0 0 22 22" fill="none" xmlns="http://www.w3.org/2000/svg">
<path d="M18.5809 16.3625C18.5809 16.4817 18.5809 16.5642 18.5809 16.6558C18.5809 17.7833 18.5809 18.92 18.5809 20.0475C18.5809 20.3683 18.4984 20.4508 18.1775 20.4508C13.4108 20.4508 8.64418 20.4508 3.87752 20.4508C3.54752 20.4508 3.46502 20.3683 3.46502 20.0292C3.46502 18.9017 3.46502 17.765 3.46502 16.6375C3.46502 16.555 3.46502 16.4725 3.46502 16.3625C3.02502 16.3625 2.60335 16.3625 2.18168 16.3625C1.57668 16.3625 1.55835 16.3442 1.55835 15.7392C1.55835 15.0333 1.55835 14.3367 1.55835 13.6308C1.55835 13.2183 1.62252 13.1542 2.02585 13.1542C2.16335 13.1542 2.29168 13.1542 2.45668 13.1542C2.33752 12.6958 2.21835 12.2558 2.09918 11.8158C2.02585 11.5317 2.06252 11.4492 2.33752 11.3392C3.01585 11.055 3.29085 11.1375 3.75835 11.7608C3.85002 11.88 3.93252 11.9258 4.07918 11.9167C5.50002 11.8708 6.92085 11.825 8.34168 11.7792C8.37835 11.7792 8.42418 11.77 8.52502 11.7608C8.41502 11.6875 8.35085 11.6417 8.28668 11.605C7.04002 10.7708 5.79335 9.93666 4.53752 9.11166C4.11585 8.83666 3.79502 8.47 3.57502 8.02083C3.41918 7.7 3.25418 7.40666 3.09835 7.10416C2.97002 6.85666 3.00668 6.71916 3.26335 6.6C3.47418 6.50833 3.69418 6.41666 3.91418 6.34333C4.12502 6.27916 4.29918 6.33416 4.46418 6.49C4.84918 6.875 5.23418 7.25999 5.63752 7.62666C5.79335 7.77333 5.98585 7.8925 6.19668 8.04833C6.22418 7.85583 6.24252 7.7 6.26085 7.55333C6.29752 7.15916 6.44418 6.82916 6.72835 6.545C7.14085 6.1325 7.54418 5.70166 7.94752 5.27083C8.07585 5.13333 8.14918 4.95 8.27752 4.8125C8.65335 4.43666 9.10252 4.18 9.59752 3.99666C9.66168 3.97833 9.71668 3.95083 9.77168 3.9325C9.49668 2.86916 9.70752 2.19083 10.4225 1.76916C11.0458 1.4025 11.8342 1.485 12.3658 1.98C12.9525 2.52083 13.035 3.2725 12.595 4.14333C12.6958 4.18916 12.7875 4.235 12.8884 4.27166C13.2459 4.43666 13.5484 4.66583 13.7867 4.97749C13.9792 5.225 14.08 5.5 14.0984 5.82083C14.19 7.41583 14.3 9.01083 14.4009 10.5967C14.9417 10.6517 15.4734 10.6975 15.9959 10.7708C16.5275 10.8533 17.0408 11.0092 17.4534 11.385C18.1409 10.8533 18.7825 10.7983 19.3417 11.22C19.91 11.66 20.02 12.265 19.6533 13.1358C19.8275 13.1358 19.9833 13.1358 20.1483 13.1358C20.3592 13.145 20.4692 13.2367 20.4692 13.4567C20.4783 14.3183 20.4783 15.18 20.4692 16.0325C20.4692 16.2525 20.35 16.3442 20.1208 16.3442C19.69 16.3442 19.2592 16.3442 18.8375 16.3442C18.7642 16.3625 18.6908 16.3625 18.5809 16.3625ZM18.0033 16.3717C13.3375 16.3717 8.69002 16.3717 4.04252 16.3717C4.04252 17.545 4.04252 18.7 4.04252 19.855C8.69918 19.855 13.3467 19.855 18.0033 19.855C18.0033 18.7 18.0033 17.545 18.0033 16.3717ZM10.4592 13.7317C7.69085 13.7317 4.92252 13.7317 2.14502 13.7317C2.14502 14.4192 2.14502 15.0883 2.14502 15.7575C8.06668 15.7575 13.9792 15.7575 19.8917 15.7575C19.8917 15.07 19.8917 14.4008 19.8917 13.7133C19.8 13.7133 19.7175 13.7133 19.6442 13.7133C18.9842 13.7133 18.315 13.7408 17.655 13.7042C17.1417 13.6675 16.7475 13.7867 16.4175 14.2175C16.17 14.5567 15.785 14.6942 15.3542 14.685C13.9883 14.6758 12.6225 14.6667 11.2567 14.6575C10.8808 14.6575 10.5784 14.4008 10.4958 14.025C10.4775 13.9425 10.4775 13.8417 10.4592 13.7317ZM17.3067 13.1817C17.325 13.1633 17.3433 13.1358 17.3617 13.1175C17.1967 12.8242 17.0775 12.5125 17.1508 12.1733C17.2058 11.935 17.1142 11.7792 16.9308 11.7058C16.5825 11.5592 16.2342 11.4125 15.8675 11.3483C14.6942 11.1375 13.5025 11.2108 12.32 11.2842C12.1642 11.2933 12.0725 11.33 12.0084 11.495C11.8525 11.8983 11.4309 12.1183 10.9817 12.0725C10.5875 12.0358 10.175 11.715 10.1567 11.3208C10.1383 10.945 9.91835 10.8258 9.67085 10.6883C9.58835 10.6425 9.51502 10.5967 9.43252 10.5508C8.91002 10.2483 8.37835 9.94583 7.89252 9.66166C7.72752 9.89083 7.58085 10.0925 7.42502 10.3125C7.48002 10.3492 7.57168 10.4133 7.65418 10.4683C8.28668 10.89 8.91918 11.3117 9.55168 11.7242C9.68002 11.8067 9.78085 11.9075 9.73502 12.0725C9.68918 12.2375 9.56085 12.2833 9.40502 12.2925C7.54418 12.3567 5.69252 12.4208 3.83168 12.485C3.67585 12.4942 3.56585 12.43 3.47418 12.3017C3.36418 12.155 3.24502 12.0083 3.10752 11.88C2.97918 11.7792 2.84168 11.7333 2.68585 11.825C2.77752 12.1825 2.87835 12.5217 2.96085 12.87C2.99752 13.0258 3.06168 13.0717 3.21752 13.0717C4.40002 13.0717 5.59168 13.1083 6.77418 13.09C8.25918 13.0717 9.75335 13.1817 11.2383 13.035C12.0267 12.9525 12.8334 13.035 13.64 13.0167C14.08 13.0075 14.5108 12.9342 14.8683 12.6408C15.5283 12.1183 16.5733 12.3842 17.0317 13.0075C17.105 13.0808 17.215 13.1267 17.3067 13.1817ZM10.4042 10.4317C11.0184 9.70749 11.6417 8.98333 12.2558 8.25C12.2925 8.20416 12.3109 8.12166 12.3109 8.0575C12.3109 7.71833 12.32 7.37916 12.2833 7.04916C12.2558 6.7925 12.3384 6.6275 12.54 6.4625C12.8792 6.1875 13.1817 5.86666 13.4842 5.56416C13.1542 5.01416 12.6867 4.77583 12.155 4.62916C12.1 4.61083 12.0358 4.6475 11.9808 4.66583C11.3942 4.9225 10.8442 4.88583 10.3125 4.52833C10.2575 4.49166 10.1842 4.44583 10.12 4.46416C9.60668 4.565 9.15752 4.79416 8.75418 5.15166C8.92835 5.445 9.10252 5.72916 9.26752 6.00416C9.70752 5.665 9.93668 5.8575 9.92752 6.31583C9.92752 6.34333 9.92752 6.37083 9.93668 6.39833C10.01 7.645 10.0833 8.8825 10.1475 10.1292C10.1567 10.285 10.2025 10.3767 10.4042 10.4317ZM13.5667 6.325C13.3559 6.50833 13.2 6.67333 13.0167 6.81083C12.8883 6.9025 12.8608 7.00333 12.8608 7.15916C12.8792 7.48916 12.8975 7.81916 12.8792 8.14916C12.87 8.29583 12.8059 8.47 12.7142 8.58916C12.0817 9.35 11.44 10.0925 10.7892 10.835C10.6792 10.9633 10.6425 11.0917 10.7067 11.2475C10.7892 11.4308 10.9358 11.5317 11.1375 11.5042C11.3392 11.4767 11.495 11.3575 11.5134 11.1467C11.5317 10.9542 11.6325 10.835 11.7608 10.7158C12.3109 10.2117 12.8517 9.70749 13.4017 9.20333C13.6308 8.98333 13.75 8.72666 13.695 8.39666C13.6767 8.29583 13.6859 8.195 13.6767 8.09416C13.64 7.52583 13.6034 6.94833 13.5667 6.325ZM11.2659 4.25333C11.8525 4.25333 12.3292 3.77666 12.3292 3.19C12.3292 2.59416 11.8434 2.10833 11.2475 2.1175C10.6609 2.12666 10.1933 2.60333 10.1933 3.19916C10.2025 3.78583 10.67 4.25333 11.2659 4.25333ZM16.5733 13.3558C16.1792 12.8975 15.6567 12.815 15.2442 13.0992C14.9233 13.3192 14.5842 13.475 14.1992 13.5208C13.8417 13.5667 13.4934 13.6125 13.1358 13.6125C12.54 13.6217 11.9534 13.5942 11.3575 13.585C11.165 13.585 11.055 13.6767 11.0642 13.8417C11.0733 14.0067 11.1467 14.0892 11.3209 14.0892C12.6684 14.0983 14.0067 14.1075 15.3542 14.1167C15.5925 14.1167 15.7942 14.0342 15.9775 13.8692C16.1609 13.7042 16.3625 13.53 16.5733 13.3558ZM9.37752 6.6275C9.24918 6.71916 9.15752 6.77416 9.08418 6.8475C8.82752 7.1225 8.58918 7.425 8.32335 7.69083C8.11252 7.91083 8.00252 8.1675 7.97502 8.47C7.96585 8.54333 7.95668 8.62583 7.93835 8.69916C7.87418 8.91916 7.92002 9.05666 8.14918 9.16666C8.44252 9.30416 8.70835 9.47833 8.98335 9.64333C9.16668 9.74416 9.35002 9.85416 9.56085 9.97333C9.50585 8.855 9.44168 7.77333 9.37752 6.6275ZM8.39668 5.64666C7.92918 6.1325 7.47085 6.59083 7.04002 7.0675C6.94835 7.16833 6.88418 7.32416 6.85668 7.47083C6.75585 8.12166 6.67335 8.77249 6.58168 9.42333C6.55418 9.625 6.67335 9.78083 6.86585 9.80833C7.06752 9.83583 7.21418 9.72583 7.24168 9.52416C7.27835 9.3225 7.30585 9.12083 7.33335 8.91916C7.46168 7.80999 7.47085 7.80083 8.20418 6.96666C8.40585 6.74666 8.59835 6.5175 8.80002 6.2975C8.65335 6.08666 8.53418 5.87583 8.39668 5.64666ZM17.7008 12.3292C17.7008 12.7875 18.0583 13.145 18.5075 13.145C18.9475 13.145 19.3142 12.7875 19.3233 12.3475C19.3325 11.8983 18.9659 11.5225 18.5167 11.5133C18.0675 11.5133 17.7008 11.88 17.7008 12.3292ZM6.00418 9.405C6.04085 9.14833 6.08668 8.9375 6.10502 8.72666C6.10502 8.68083 6.05002 8.61666 6.00418 8.58916C5.30752 8.20416 4.78502 7.62666 4.23502 7.07666C4.02418 6.86583 3.99668 6.85666 3.71252 7.04916C3.86835 7.35166 4.01502 7.65416 4.18918 7.9475C4.29002 8.1125 4.40002 8.2775 4.55585 8.3875C5.01418 8.73583 5.49085 9.0475 6.00418 9.405ZM13.7684 9.625C13.3742 9.99166 13.0259 10.3125 12.6775 10.6425C13.0808 10.6425 13.4567 10.6425 13.8417 10.6425C13.8142 10.2942 13.7959 9.99166 13.7684 9.625Z" fill="#FEF9E0"/>
</svg>
