<svg width="30" height="30" viewBox="0 0 30 30" fill="none" xmlns="http://www.w3.org/2000/svg">
<path d="M12.4353 11.2951C12.9153 10.3951 13.2753 9.60011 13.7553 8.86511C14.2803 8.08511 14.8653 7.32011 15.5103 6.6301C17.7453 4.2901 21.7503 4.8601 23.1303 7.80011C24.2103 10.0801 25.8003 11.8801 27.6303 13.5301C28.0803 13.9351 28.4103 14.4301 28.2903 15.0301C28.1853 15.5401 28.2153 15.9601 28.4553 16.4401C28.6203 16.8001 28.5603 17.2951 28.5453 17.7151C28.5303 18.0301 28.2153 18.2251 27.9153 18.2101C27.6303 18.1801 27.3903 17.9701 27.3753 17.6551C27.3603 17.4151 27.3753 17.1901 27.3603 16.9501C27.3603 16.7251 27.2553 16.5601 27.0003 16.5601C26.7603 16.5601 26.6403 16.7101 26.6403 16.9501C26.6403 17.0551 26.6403 17.1601 26.6403 17.2651C26.6403 21.1052 26.6403 24.9302 26.6403 28.7702C26.6403 28.9202 26.6403 29.0852 26.5953 29.2202C26.5203 29.5202 26.2953 29.6702 25.9953 29.6552C25.7103 29.6552 25.4703 29.4152 25.4403 29.1152C25.4253 28.9802 25.4253 28.8602 25.4253 28.7252C25.4253 24.9452 25.4253 21.1502 25.4253 17.3701C25.4253 16.9951 25.4703 16.6351 25.4853 16.2151C23.4003 15.0301 21.7953 13.2601 20.3553 11.2951C19.7403 11.9251 19.3353 12.6451 19.0353 13.4101C18.3753 15.1051 18.2103 16.8901 18.1653 18.6901C18.1353 20.2351 18.4803 21.7352 18.7803 23.2352C19.1703 25.0952 19.6053 26.9402 20.0253 28.7852C20.1453 29.3102 19.9653 29.5952 19.4403 29.6702C18.9153 29.7452 18.3753 29.8352 17.8503 29.9252C17.1153 30.0452 16.9503 29.8952 16.7853 29.1452C16.4103 27.4502 15.9903 25.7552 15.5703 24.0602C15.5703 24.0452 15.5403 24.0302 15.4803 24.0002C15.3753 24.6452 15.2703 25.2752 15.1653 25.9052C15.0003 26.9552 14.8353 28.0052 14.6553 29.0552C14.5953 29.4602 14.3703 29.6552 13.9653 29.6552C13.2603 29.6552 12.5553 29.6702 11.8503 29.6552C11.3703 29.6402 11.1153 29.3102 11.2353 28.8452C11.7153 27.0002 11.8803 25.0952 11.8803 23.2052C11.8803 21.0301 11.7153 18.8551 11.7003 16.6651C11.7003 15.8101 11.5053 15.1651 10.8153 14.6551C10.5153 14.4301 10.2903 14.1301 9.97528 13.7851C9.88528 14.5801 9.78028 15.3001 9.73528 16.0201C9.54028 18.6451 9.72029 21.2402 10.1553 23.8352C10.2453 24.3902 10.1553 24.5552 9.55528 24.7652C9.66028 25.2452 9.78029 25.7252 9.90029 26.2202C10.1103 27.0902 10.3203 27.9452 10.5153 28.8152C10.6353 29.3402 10.3953 29.6552 9.84029 29.6552C9.25528 29.6552 8.67028 29.6552 8.08528 29.6552C7.65028 29.6552 7.47028 29.5352 7.33528 29.1152C7.08028 28.3352 6.82528 27.5552 6.57027 26.7752C6.54027 26.6702 6.49527 26.5802 6.43527 26.4152C6.21027 27.4202 6.00027 28.3502 5.79027 29.2952C5.73027 29.8652 5.59527 30.0002 5.04027 30.0002C4.56027 30.0002 4.08027 30.0002 3.60027 30.0002C2.98526 30.0002 2.77526 29.7452 2.85026 29.1452C3.00026 27.7502 3.15026 26.3402 3.30026 24.9452C3.30026 24.9002 3.30026 24.8552 3.30026 24.7502C2.94026 24.7502 2.58026 24.7502 2.22026 24.7502C1.68026 24.7502 1.45526 24.5552 1.45526 24.0152C1.32026 18.1051 2.55026 12.5401 5.71527 7.47011C6.43527 6.3301 7.45528 5.7751 8.80528 6.0001C10.1253 6.2101 10.9053 7.03511 11.3103 8.31011C11.6103 9.30011 12.0303 10.2451 12.4353 11.2951ZM19.6803 10.2601C19.5303 10.0201 19.3953 9.79511 19.2753 9.57011C19.0503 9.18011 19.1253 8.83511 19.4403 8.65511C19.7553 8.47511 20.0703 8.59511 20.3253 8.97011C20.7303 9.60011 21.1203 10.2451 21.5703 10.8451C22.7103 12.4051 24.0003 13.8301 25.6353 14.8801C25.8753 15.0301 26.1153 15.1651 26.3703 15.3001C26.6253 15.4351 26.8803 15.4051 27.0453 15.1501C27.2103 14.9101 27.1353 14.6851 26.9403 14.4901C26.8203 14.3851 26.7153 14.2951 26.5953 14.1901C24.7653 12.4951 23.1453 10.6801 22.0953 8.37011C21.1203 6.1951 18.1353 5.6851 16.4553 7.38011C13.9953 9.85511 12.7953 12.8551 12.9303 16.3651C12.9753 17.6401 13.0803 18.9151 13.1403 20.1901C13.2303 22.3652 13.1703 24.5252 12.9153 26.6852C12.8403 27.2702 12.7503 27.8552 12.6603 28.4402C12.9903 28.4402 13.2753 28.4402 13.5753 28.4402C13.5903 28.3952 13.6053 28.3652 13.6053 28.3502C13.9803 26.0102 14.3703 23.6552 14.7453 21.3152C14.8353 20.7751 15.0003 20.5501 15.3453 20.5351C15.6903 20.5201 15.8853 20.6851 16.0353 21.1952C16.5003 22.8452 16.9803 24.4802 17.4153 26.1302C17.6403 26.9702 17.8203 27.8402 18.0153 28.6952C18.2703 28.6502 18.5253 28.6052 18.7803 28.5602C18.7653 28.4252 18.7503 28.3352 18.7203 28.2452C18.4053 26.8652 18.0753 25.4852 17.7903 24.1052C17.3553 21.9602 16.8753 19.8301 17.0403 17.6101C17.2353 14.9251 17.7153 12.3301 19.6803 10.2601ZM8.89528 23.5502C8.89528 23.4752 8.91028 23.4452 8.91028 23.4152C8.38528 19.8451 8.31028 16.2751 9.04528 12.7201C9.07528 12.6001 9.00028 12.4501 8.94028 12.3301C8.50528 11.6251 8.14528 10.8901 7.99528 10.0801C7.90528 9.63011 8.10028 9.31511 8.47528 9.24011C8.82028 9.18011 9.07528 9.42011 9.18028 9.85511C9.55528 11.5351 10.6803 12.7201 11.8353 13.9651C11.8953 13.6201 11.9553 13.3501 12.0003 13.0651C12.0153 12.9301 12.0303 12.7651 11.9703 12.6751C11.1153 11.3401 10.4853 9.90011 10.0503 8.37011C9.84029 7.65011 9.27028 7.23011 8.50528 7.15511C7.81528 7.08011 7.24528 7.35011 6.84028 7.92011C6.69028 8.14511 6.54027 8.37011 6.40527 8.61011C3.73527 13.1551 2.62526 18.0901 2.62526 23.3252C2.62526 23.4002 2.65526 23.4752 2.67026 23.5652C4.75527 23.5502 6.81028 23.5502 8.89528 23.5502ZM9.24028 28.4402C8.94028 27.2102 8.65528 25.9952 8.37028 24.7802C7.99528 24.7802 7.63528 24.7802 7.24528 24.7802C7.59028 25.8302 7.92028 26.8502 8.25028 27.8702C8.46028 28.5302 8.46028 28.5302 9.16528 28.4702C9.18028 28.4702 9.19528 28.4702 9.24028 28.4402ZM4.09527 28.7702C4.74027 28.8302 4.74027 28.8302 4.86027 28.2902C4.87527 28.2152 4.89027 28.1252 4.92027 28.0502C5.16027 26.9702 5.40027 25.8902 5.65527 24.7952C5.26527 24.7952 4.90527 24.7952 4.54527 24.7952C4.38027 26.1152 4.24527 27.4352 4.09527 28.7702Z" fill="#FEF9E0"/>
<path d="M24.659 0.000110433C26.534 0.000110433 28.049 1.53012 28.064 3.39012C28.064 5.26513 26.519 6.81013 24.644 6.81013C22.754 6.81013 21.239 5.26513 21.254 3.37512C21.254 1.50012 22.784 -0.0148896 24.659 0.000110433ZM24.659 1.20011C23.429 1.20011 22.439 2.17512 22.439 3.39012C22.439 4.60513 23.429 5.61013 24.644 5.59513C25.844 5.59513 26.834 4.62013 26.849 3.40512C26.879 2.20512 25.889 1.20011 24.659 1.20011Z" fill="#FEF9E0"/>
<path d="M15.5094 3.58512C15.5094 5.37012 14.0543 6.81013 12.2843 6.81013C10.4993 6.81013 9.05933 5.34012 9.07433 3.55512C9.08933 1.77011 10.5293 0.360107 12.3143 0.360107C14.0844 0.360107 15.5094 1.80011 15.5094 3.58512ZM14.3094 3.58512C14.3094 2.46011 13.4093 1.56011 12.2843 1.56011C11.1743 1.56011 10.2743 2.46011 10.2743 3.57012C10.2593 4.69512 11.1593 5.61012 12.2843 5.61012C13.3943 5.61012 14.3094 4.71012 14.3094 3.58512Z" fill="#FEF9E0"/>
</svg>
