<svg width="30" height="30" viewBox="0 0 30 30" fill="none" xmlns="http://www.w3.org/2000/svg">
<path d="M3.75 8.75V6.25C3.75 5.58696 4.01339 4.95107 4.48223 4.48223C4.95107 4.01339 5.58696 3.75 6.25 3.75H8.75" stroke="#FEF9E0" stroke-width="2" stroke-linecap="round" stroke-linejoin="round"/>
<path d="M21.25 3.75H23.75C24.413 3.75 25.0489 4.01339 25.5178 4.48223C25.9866 4.95107 26.25 5.58696 26.25 6.25V8.75" stroke="#FEF9E0" stroke-width="2" stroke-linecap="round" stroke-linejoin="round"/>
<path d="M26.25 21.25V23.75C26.25 24.413 25.9866 25.0489 25.5178 25.5178C25.0489 25.9866 24.413 26.25 23.75 26.25H21.25" stroke="#FEF9E0" stroke-width="2" stroke-linecap="round" stroke-linejoin="round"/>
<path d="M8.75 26.25H6.25C5.58696 26.25 4.95107 25.9866 4.48223 25.5178C4.01339 25.0489 3.75 24.413 3.75 23.75V21.25" stroke="#FEF9E0" stroke-width="2" stroke-linecap="round" stroke-linejoin="round"/>
<path d="M15 16.25C15.6904 16.25 16.25 15.6904 16.25 15C16.25 14.3096 15.6904 13.75 15 13.75C14.3096 13.75 13.75 14.3096 13.75 15C13.75 15.6904 14.3096 16.25 15 16.25Z" stroke="#FEF9E0" stroke-width="2" stroke-linecap="round" stroke-linejoin="round"/>
<path d="M23.68 15.4125C23.7734 15.1455 23.7734 14.8546 23.68 14.5875C22.9763 12.8631 21.7748 11.3873 20.2288 10.3485C18.6829 9.30967 16.8626 8.75488 15 8.75488C13.1375 8.75488 11.3171 9.30967 9.7712 10.3485C8.22526 11.3873 7.02379 12.8631 6.32002 14.5875C6.22666 14.8546 6.22666 15.1455 6.32002 15.4125C7.02379 17.137 8.22526 18.6128 9.7712 19.6516C11.3171 20.6904 13.1375 21.2452 15 21.2452C16.8626 21.2452 18.6829 20.6904 20.2288 19.6516C21.7748 18.6128 22.9763 17.137 23.68 15.4125Z" stroke="#FEF9E0" stroke-width="2" stroke-linecap="round" stroke-linejoin="round"/>
</svg>
