<svg width="30" height="30" viewBox="0 0 30 30" fill="none" xmlns="http://www.w3.org/2000/svg">
<g clip-path="url(#clip0_58_444)">
<path d="M0 17.8901C0.05 17.7201 0.09 17.5601 0.15 17.3901C0.64 15.9101 2.19 15.0801 3.7 15.5201C4.43 15.7301 5.15 15.9801 5.87 16.2101C5.94 16.2301 6.02 16.2501 6.11 16.2701C6.71 12.8701 8.6 10.5001 11.78 9.12008C10.47 7.90008 9.88 6.40008 10.14 4.62008C10.33 3.37008 10.94 2.35008 11.92 1.56008C13.91 -0.0399189 16.82 0.180081 18.57 2.05008C20.33 3.94008 20.43 7.07008 18.19 9.11008C21.35 10.4801 23.24 12.8401 23.85 16.2601C23.98 16.2201 24.12 16.1901 24.25 16.1501C24.91 15.9401 25.56 15.7101 26.22 15.5201C28.15 14.9501 30.02 16.4101 29.94 18.4101C29.9 19.5401 29.16 20.5701 28.07 20.9701C27.47 21.1901 26.86 21.3801 26.22 21.5901C26.29 21.6601 26.34 21.7101 26.4 21.7601C27.75 22.9501 28.23 24.4401 27.77 26.1601C27.3 27.8901 26.13 28.9401 24.37 29.3301C24.06 29.4001 23.73 29.4101 23.41 29.4101C17.79 29.4101 12.16 29.4201 6.54 29.4101C4.26 29.4101 2.48 27.9701 2.09 25.7601C1.81 24.2101 2.3 22.8801 3.48 21.8101C3.55 21.7501 3.63 21.6901 3.74 21.5901C3.23 21.4201 2.77 21.2501 2.29 21.1101C1.06 20.7601 0.29 19.9901 0.04 18.7301C0.04 18.7101 0.02 18.7001 0 18.6901C0 18.4401 0 18.1701 0 17.8901ZM10.56 21.9601C10.63 22.0001 10.67 22.0201 10.7 22.0301C12.07 22.4801 13.44 22.9201 14.81 23.3601C14.92 23.3901 15.06 23.3801 15.17 23.3401C16.2 23.0101 17.22 22.6801 18.25 22.3501C18.62 22.2301 18.98 22.1101 19.4 21.9801C18.32 21.0301 18.07 19.8301 18.11 18.4901C18.16 16.8301 18.13 15.1601 18.12 13.4901C18.1 11.3801 16.18 9.90008 14.17 10.4201C12.78 10.7801 11.83 12.0301 11.82 13.5401C11.81 15.3901 11.82 17.2401 11.81 19.0901C11.81 19.4101 11.77 19.7301 11.71 20.0401C11.55 20.8001 11.14 21.4201 10.56 21.9601ZM19.9 27.6701C19.9 27.6301 19.91 27.6101 19.9 27.6001C19.89 27.5601 19.87 27.5301 19.85 27.4901C19.53 26.9201 19.05 26.5801 18.44 26.3901C17.07 25.9501 15.7 25.5001 14.33 25.0601C11.88 24.2701 9.43 23.4601 6.98 22.6801C6.07 22.3901 5.24 22.5901 4.54 23.2501C3.84 23.9101 3.62 24.7501 3.84 25.6801C4.13 26.9101 5.17 27.6901 6.51 27.6901C10.88 27.6901 15.26 27.6901 19.63 27.6901C19.73 27.6801 19.82 27.6701 19.9 27.6701ZM14.98 8.55008C16.72 8.55008 18.12 7.14008 18.12 5.41008C18.12 3.68008 16.71 2.27008 14.98 2.27008C13.24 2.26008 11.81 3.69008 11.82 5.43008C11.83 7.15008 13.24 8.55008 14.98 8.55008ZM19.77 12.1501C19.81 12.7401 19.87 13.3201 19.88 13.9001C19.89 15.6601 19.88 17.4301 19.89 19.1901C19.9 20.4801 21.09 21.3601 22.33 21.0201C22.73 20.9101 23.13 20.7701 23.52 20.6401C24.79 20.2301 26.05 19.8201 27.32 19.4101C27.98 19.1901 28.32 18.6201 28.15 18.0101C27.97 17.3501 27.34 17.0201 26.66 17.2401C25.58 17.5901 24.5 17.9401 23.41 18.2901C22.7 18.5201 22.22 18.1501 22.15 17.4201C22.08 16.7201 22 16.0001 21.81 15.3301C21.44 14.0701 20.72 13.0201 19.77 12.1501ZM10.17 12.1701C10.12 12.2201 10.03 12.2901 9.96 12.3601C8.57 13.7401 7.85 15.4201 7.79 17.3701C7.76 18.1701 7.26 18.5201 6.49 18.2701C5.43 17.9301 4.36 17.5801 3.3 17.2401C2.64 17.0301 2.02 17.3201 1.81 17.9401C1.6 18.5701 1.94 19.1901 2.61 19.4001C4.22 19.9201 5.83 20.4501 7.44 20.9601C7.73 21.0501 8.06 21.1101 8.36 21.0801C9.38 20.9701 10.05 20.1801 10.07 19.1501C10.11 16.8201 9.95 14.4901 10.17 12.1701ZM17.91 24.3101C17.91 24.3301 17.91 24.3501 17.9 24.3701C18.25 24.4901 18.6 24.6101 18.95 24.7101C20.37 25.1501 21.3 26.0701 21.74 27.4901C21.76 27.5701 21.89 27.6701 21.97 27.6701C22.56 27.6801 23.16 27.6901 23.75 27.6601C25.14 27.5801 26.27 26.2601 26.15 24.8601C26.01 23.2301 24.48 22.1901 22.92 22.6801C21.84 23.0201 20.77 23.3801 19.7 23.7201C19.11 23.9201 18.51 24.1101 17.91 24.3101Z" fill="#FEF9E0"/>
</g>
<defs>
<clipPath id="clip0_58_444">
<rect width="30" height="30" fill="white"/>
</clipPath>
</defs>
</svg>
